<svg width="76" height="21" viewBox="0 0 76 21" fill="none" xmlns="http://www.w3.org/2000/svg">
<path d="M25.5361 5.04688V15H24.2168V5.04688H25.5361ZM31.668 5.04688L27.3477 10.5225H25.0098L24.8047 9.42871H26.5615L30.0342 5.04688H31.668ZM30.3418 15L26.6025 10.3516L27.3408 9.19629L31.9551 15H30.3418ZM37.3213 13.7354V9.92773C37.3213 9.63607 37.262 9.38314 37.1436 9.16895C37.0296 8.9502 36.8564 8.78158 36.624 8.66309C36.3916 8.5446 36.1045 8.48535 35.7627 8.48535C35.4437 8.48535 35.1634 8.54004 34.9219 8.64941C34.6849 8.75879 34.498 8.90234 34.3613 9.08008C34.2292 9.25781 34.1631 9.44922 34.1631 9.6543H32.8984C32.8984 9.38997 32.9668 9.12793 33.1035 8.86816C33.2402 8.6084 33.4362 8.3737 33.6914 8.16406C33.9512 7.94987 34.2611 7.78125 34.6211 7.6582C34.9857 7.5306 35.3913 7.4668 35.8379 7.4668C36.3757 7.4668 36.8496 7.55794 37.2598 7.74023C37.6745 7.92253 37.998 8.19824 38.2305 8.56738C38.4674 8.93197 38.5859 9.38997 38.5859 9.94141V13.3867C38.5859 13.6328 38.6064 13.8949 38.6475 14.1729C38.693 14.4508 38.7591 14.6901 38.8457 14.8906V15H37.5264C37.4626 14.8542 37.4124 14.6605 37.376 14.4189C37.3395 14.1729 37.3213 13.945 37.3213 13.7354ZM37.54 10.5156L37.5537 11.4043H36.2754C35.9154 11.4043 35.5941 11.4339 35.3115 11.4932C35.029 11.5479 34.792 11.6322 34.6006 11.7461C34.4092 11.86 34.2633 12.0036 34.1631 12.1768C34.0628 12.3454 34.0127 12.5436 34.0127 12.7715C34.0127 13.0039 34.0651 13.2158 34.1699 13.4072C34.2747 13.5986 34.432 13.7513 34.6416 13.8652C34.8558 13.9746 35.1178 14.0293 35.4277 14.0293C35.8151 14.0293 36.1569 13.9473 36.4531 13.7832C36.7493 13.6191 36.984 13.4186 37.1572 13.1816C37.335 12.9447 37.4307 12.7145 37.4443 12.4912L37.9844 13.0996C37.9525 13.291 37.8659 13.5029 37.7246 13.7354C37.5833 13.9678 37.3942 14.1911 37.1572 14.4053C36.9248 14.6149 36.6468 14.7904 36.3232 14.9316C36.0042 15.0684 35.6442 15.1367 35.2432 15.1367C34.7419 15.1367 34.3021 15.0387 33.9238 14.8428C33.5501 14.6468 33.2585 14.3848 33.0488 14.0566C32.8438 13.724 32.7412 13.3525 32.7412 12.9424C32.7412 12.5459 32.8187 12.1973 32.9736 11.8965C33.1286 11.5911 33.3519 11.3382 33.6436 11.1377C33.9352 10.9326 34.2861 10.7777 34.6963 10.6729C35.1064 10.568 35.5645 10.5156 36.0703 10.5156H37.54ZM43.4805 7.60352V15H42.209V7.60352H43.4805ZM45.9619 7.60352V8.62891H39.7754V7.60352H45.9619ZM51.458 13.7354V9.92773C51.458 9.63607 51.3988 9.38314 51.2803 9.16895C51.1663 8.9502 50.9932 8.78158 50.7607 8.66309C50.5283 8.5446 50.2412 8.48535 49.8994 8.48535C49.5804 8.48535 49.3001 8.54004 49.0586 8.64941C48.8216 8.75879 48.6348 8.90234 48.498 9.08008C48.3659 9.25781 48.2998 9.44922 48.2998 9.6543H47.0352C47.0352 9.38997 47.1035 9.12793 47.2402 8.86816C47.377 8.6084 47.5729 8.3737 47.8281 8.16406C48.0879 7.94987 48.3978 7.78125 48.7578 7.6582C49.1224 7.5306 49.528 7.4668 49.9746 7.4668C50.5124 7.4668 50.9863 7.55794 51.3965 7.74023C51.8112 7.92253 52.1348 8.19824 52.3672 8.56738C52.6042 8.93197 52.7227 9.38997 52.7227 9.94141V13.3867C52.7227 13.6328 52.7432 13.8949 52.7842 14.1729C52.8298 14.4508 52.8958 14.6901 52.9824 14.8906V15H51.6631C51.5993 14.8542 51.5492 14.6605 51.5127 14.4189C51.4762 14.1729 51.458 13.945 51.458 13.7354ZM51.6768 10.5156L51.6904 11.4043H50.4121C50.0521 11.4043 49.7308 11.4339 49.4482 11.4932C49.1657 11.5479 48.9287 11.6322 48.7373 11.7461C48.5459 11.86 48.4001 12.0036 48.2998 12.1768C48.1995 12.3454 48.1494 12.5436 48.1494 12.7715C48.1494 13.0039 48.2018 13.2158 48.3066 13.4072C48.4115 13.5986 48.5687 13.7513 48.7783 13.8652C48.9925 13.9746 49.2546 14.0293 49.5645 14.0293C49.9518 14.0293 50.2936 13.9473 50.5898 13.7832C50.8861 13.6191 51.1208 13.4186 51.2939 13.1816C51.4717 12.9447 51.5674 12.7145 51.5811 12.4912L52.1211 13.0996C52.0892 13.291 52.0026 13.5029 51.8613 13.7354C51.7201 13.9678 51.5309 14.1911 51.2939 14.4053C51.0615 14.6149 50.7835 14.7904 50.46 14.9316C50.141 15.0684 49.7809 15.1367 49.3799 15.1367C48.8786 15.1367 48.4388 15.0387 48.0605 14.8428C47.6868 14.6468 47.3952 14.3848 47.1855 14.0566C46.9805 13.724 46.8779 13.3525 46.8779 12.9424C46.8779 12.5459 46.9554 12.1973 47.1104 11.8965C47.2653 11.5911 47.4886 11.3382 47.7803 11.1377C48.0719 10.9326 48.4229 10.7777 48.833 10.6729C49.2432 10.568 49.7012 10.5156 50.207 10.5156H51.6768ZM59.6543 7.60352V8.64941H56.0791V7.60352H59.6543ZM60.7686 7.60352V15H59.5039V7.60352H60.7686ZM55.7715 7.60352H57.043L56.8516 11.1719C56.8197 11.7233 56.7673 12.2109 56.6943 12.6348C56.626 13.054 56.5303 13.4141 56.4072 13.7148C56.2887 14.0156 56.1383 14.2617 55.9561 14.4531C55.7783 14.64 55.5641 14.779 55.3135 14.8701C55.0628 14.9567 54.7734 15 54.4453 15H54.0488V13.8857L54.3223 13.8652C54.5182 13.8516 54.6846 13.806 54.8213 13.7285C54.9626 13.651 55.0811 13.5371 55.1768 13.3867C55.2725 13.2318 55.3499 13.0335 55.4092 12.792C55.473 12.5505 55.5208 12.2633 55.5527 11.9307C55.5892 11.598 55.6165 11.2106 55.6348 10.7686L55.7715 7.60352ZM62.4707 11.3838V11.2266C62.4707 10.6934 62.5482 10.1989 62.7031 9.74316C62.8581 9.28288 63.0814 8.88411 63.373 8.54688C63.6647 8.20508 64.0179 7.94076 64.4326 7.75391C64.8473 7.5625 65.3122 7.4668 65.8271 7.4668C66.3467 7.4668 66.8138 7.5625 67.2285 7.75391C67.6478 7.94076 68.0033 8.20508 68.2949 8.54688C68.5911 8.88411 68.8167 9.28288 68.9717 9.74316C69.1266 10.1989 69.2041 10.6934 69.2041 11.2266V11.3838C69.2041 11.917 69.1266 12.4115 68.9717 12.8672C68.8167 13.3229 68.5911 13.7217 68.2949 14.0635C68.0033 14.4007 67.6501 14.665 67.2354 14.8564C66.8252 15.0433 66.3604 15.1367 65.8408 15.1367C65.3213 15.1367 64.8542 15.0433 64.4395 14.8564C64.0247 14.665 63.6693 14.4007 63.373 14.0635C63.0814 13.7217 62.8581 13.3229 62.7031 12.8672C62.5482 12.4115 62.4707 11.917 62.4707 11.3838ZM63.7354 11.2266V11.3838C63.7354 11.7529 63.7786 12.1016 63.8652 12.4297C63.9518 12.7533 64.0817 13.0404 64.2549 13.291C64.4326 13.5417 64.6536 13.7399 64.918 13.8857C65.1823 14.027 65.4899 14.0977 65.8408 14.0977C66.1872 14.0977 66.4902 14.027 66.75 13.8857C67.0143 13.7399 67.2331 13.5417 67.4062 13.291C67.5794 13.0404 67.7093 12.7533 67.7959 12.4297C67.887 12.1016 67.9326 11.7529 67.9326 11.3838V11.2266C67.9326 10.862 67.887 10.5179 67.7959 10.1943C67.7093 9.86621 67.5771 9.57682 67.3994 9.32617C67.2262 9.07096 67.0075 8.87044 66.7432 8.72461C66.4834 8.57878 66.1781 8.50586 65.8271 8.50586C65.4808 8.50586 65.1755 8.57878 64.9111 8.72461C64.6514 8.87044 64.4326 9.07096 64.2549 9.32617C64.0817 9.57682 63.9518 9.86621 63.8652 10.1943C63.7786 10.5179 63.7354 10.862 63.7354 11.2266ZM75.5684 7.60352V8.64941H72.1504V15H70.8857V7.60352H75.5684Z" fill="white"/>
<circle cx="1.5" cy="4.5" r="1.5" fill="white"/>
<circle cx="1.5" cy="9.5" r="1.5" fill="white"/>
<circle cx="1.5" cy="14.5" r="1.5" fill="white"/>
<circle cx="6.5" cy="4.5" r="1.5" fill="white"/>
<circle cx="6.5" cy="9.5" r="1.5" fill="white"/>
<circle cx="6.5" cy="14.5" r="1.5" fill="white"/>
<circle cx="11.5" cy="4.5" r="1.5" fill="white"/>
<circle cx="11.5" cy="9.5" r="1.5" fill="white"/>
<circle cx="11.5" cy="14.5" r="1.5" fill="white"/>
</svg>
