<svg width="37" height="41" viewBox="0 0 37 41" fill="none" xmlns="http://www.w3.org/2000/svg">
<rect width="37" height="41" fill="#80E0EF"/>
<path fill-rule="evenodd" clip-rule="evenodd" d="M20.959 27.0236C20.292 27.6606 19.409 28.0066 18.471 28.0006H18.47C17.533 27.9926 16.656 27.6316 16 26.9846C14.651 25.6556 14.669 23.5076 16.041 22.1986L18.204 20.1306C18.293 20.0456 18.413 19.9996 18.539 20.0006C18.664 20.0016 18.784 20.0496 18.871 20.1356L21 22.2366C22.349 23.5666 22.331 25.7136 20.959 27.0236ZM23.806 16.9866L19.213 12.2956C18.831 11.9046 18.194 11.9046 17.798 12.2806C17.584 12.4846 17.47 12.7736 17.489 13.0686C17.498 13.2086 17.498 13.3466 17.498 13.4946C17.498 16.0516 16.855 17.5636 16.5 17.9376C16.349 17.7716 16.075 17.3356 15.844 16.4446C15.754 16.0966 15.484 15.8236 15.137 15.7296C14.788 15.6376 14.418 15.7366 14.165 15.9916L13.181 16.9846C10.27 19.9516 10.274 24.7856 13.189 27.7566C14.602 29.2026 16.485 29.9986 18.492 30.0006H18.5C20.509 30.0006 22.396 29.2046 23.815 27.7576C26.732 24.7856 26.727 19.9516 23.806 16.9866Z" fill="black"/>
<mask id="mask0_1_477" style="mask-type:alpha" maskUnits="userSpaceOnUse" x="11" y="12" width="15" height="19">
<path fill-rule="evenodd" clip-rule="evenodd" d="M20.959 27.0236C20.292 27.6606 19.409 28.0066 18.471 28.0006H18.47C17.533 27.9926 16.656 27.6316 16 26.9846C14.651 25.6556 14.669 23.5076 16.041 22.1986L18.204 20.1306C18.293 20.0456 18.413 19.9996 18.539 20.0006C18.664 20.0016 18.784 20.0496 18.871 20.1356L21 22.2366C22.349 23.5666 22.331 25.7136 20.959 27.0236ZM23.806 16.9866L19.213 12.2956C18.831 11.9046 18.194 11.9046 17.798 12.2806C17.584 12.4846 17.47 12.7736 17.489 13.0686C17.498 13.2086 17.498 13.3466 17.498 13.4946C17.498 16.0516 16.855 17.5636 16.5 17.9376C16.349 17.7716 16.075 17.3356 15.844 16.4446C15.754 16.0966 15.484 15.8236 15.137 15.7296C14.788 15.6376 14.418 15.7366 14.165 15.9916L13.181 16.9846C10.27 19.9516 10.274 24.7856 13.189 27.7566C14.602 29.2026 16.485 29.9986 18.492 30.0006H18.5C20.509 30.0006 22.396 29.2046 23.815 27.7576C26.732 24.7856 26.727 19.9516 23.806 16.9866Z" fill="white"/>
</mask>
<g mask="url(#mask0_1_477)">
<rect x="7" y="9" width="24" height="24" fill="white"/>
</g>
</svg>
