<svg width="41" height="41" viewBox="0 0 41 41" fill="none" xmlns="http://www.w3.org/2000/svg">
<path d="M13.0394 41C4.63915 36.2657 2.42754 31.7845 3.69198 25.6642C4.62545 21.145 7.68204 17.4681 7.97512 12.9575C9.2808 15.3336 9.82637 17.047 9.97226 19.53C14.125 14.4421 16.8692 7.39866 17.0317 0C17.0317 0 27.848 6.35534 28.5577 15.9551C29.4889 13.9765 29.9576 10.8338 29.0265 8.7971C31.8198 10.8339 48.1698 28.9157 26.8118 41C30.8274 33.1814 27.8478 22.6316 20.8758 17.7592C21.3414 19.8543 20.525 27.6683 17.4406 31.1018C18.2952 25.3647 16.6274 22.9388 16.6274 22.9388C16.6274 22.9388 16.055 26.1523 13.834 29.3985C11.8059 32.3629 10.4006 35.5091 13.0394 41Z" fill="url(#paint0_radial_13_554)"/>
<defs>
<radialGradient id="paint0_radial_13_554" cx="0" cy="0" r="1" gradientUnits="userSpaceOnUse" gradientTransform="translate(20.5 20.5) rotate(90) scale(20.5 17.1382)">
<stop offset="0.16794" stop-color="#EDB766"/>
<stop offset="0.585561" stop-color="#FF6D00"/>
<stop offset="0.843727" stop-color="#F44336"/>
</radialGradient>
</defs>
</svg>
