<svg width="121" height="41" viewBox="0 0 121 41" fill="none" xmlns="http://www.w3.org/2000/svg">
<path d="M53.0394 41C44.6392 36.2657 42.4275 31.7845 43.692 25.6642C44.6255 21.145 47.682 17.4681 47.9751 12.9575C49.2808 15.3336 49.8264 17.047 49.9723 19.53C54.125 14.4421 56.8692 7.39866 57.0317 0C57.0317 0 67.848 6.35534 68.5577 15.9551C69.4889 13.9765 69.9576 10.8338 69.0265 8.7971C71.8198 10.8339 88.1698 28.9157 66.8118 41C70.8274 33.1814 67.8478 22.6316 60.8758 17.7592C61.3414 19.8543 60.525 27.6683 57.4406 31.1018C58.2952 25.3647 56.6274 22.9388 56.6274 22.9388C56.6274 22.9388 56.055 26.1523 53.834 29.3985C51.8059 32.3629 50.4006 35.5091 53.0394 41Z" fill="url(#paint0_radial_43_483)"/>
<path d="M14.34 25.82C14.34 25.9133 14.34 26.0067 14.34 26.1C14.3533 26.18 14.36 26.2667 14.36 26.36C14.36 26.3867 14.3533 26.42 14.34 26.46C14.34 26.4867 14.34 26.5133 14.34 26.54C14.3267 26.5933 14.3067 26.64 14.28 26.68C14.2667 26.7067 14.2467 26.7467 14.22 26.8C14.22 26.8 14.22 26.8067 14.22 26.82C14.22 26.82 14.2133 26.82 14.2 26.82C14.1867 26.8333 14.1733 26.8467 14.16 26.86C14.1467 26.8733 14.1333 26.8867 14.12 26.9C14.0933 27.02 14.0733 27.1467 14.06 27.28C14.06 27.4133 14.0533 27.5467 14.04 27.68C14.04 27.7067 14.0267 27.8333 14 28.06C13.9867 28.2867 13.9667 28.5133 13.94 28.74C13.9267 28.98 13.9133 29.1267 13.9 29.18C13.9 29.2333 13.8933 29.3133 13.88 29.42C13.88 29.54 13.8733 29.6333 13.86 29.7C13.86 29.78 13.8533 29.7933 13.84 29.74C13.6933 29.5933 13.6267 29.3933 13.64 29.14C13.6533 28.9 13.6933 28.66 13.76 28.42C13.84 28.1933 13.8867 28.0133 13.9 27.88C13.9133 27.7467 13.8467 27.72 13.7 27.8C13.6467 27.8133 13.6 27.8 13.56 27.76C13.5467 27.7467 13.5333 27.72 13.52 27.68C13.5067 27.6533 13.5 27.6533 13.5 27.68L13.44 27.86C13.44 27.74 13.4133 27.6 13.36 27.44L13.24 27.56C13.1867 27.6133 13.1333 27.66 13.08 27.7C13.04 27.7533 13 27.8133 12.96 27.88C12.8533 28.0267 12.7533 28.18 12.66 28.34C12.5667 28.5 12.4667 28.6533 12.36 28.8C12.3333 28.8533 12.3067 28.8867 12.28 28.9C12.2533 28.9533 12.22 29.0067 12.18 29.06C12.14 29.1133 12.0933 29.1533 12.04 29.18C11.9467 29.3267 11.9 29.4067 11.9 29.42C11.9 29.4333 11.9133 29.42 11.94 29.38C11.98 29.34 12 29.3267 12 29.34C12.0133 29.3533 11.9733 29.4333 11.88 29.58C11.8667 29.62 11.8333 29.6667 11.78 29.72C11.74 29.76 11.7133 29.7733 11.7 29.76C11.6067 29.64 11.5533 29.56 11.54 29.52C11.5 29.5333 11.48 29.5067 11.48 29.44C11.4933 29.3733 11.4933 29.3267 11.48 29.3C11.44 29.1667 11.42 29.0867 11.42 29.06C11.4333 29.0333 11.4 29.02 11.32 29.02C11.1333 29.0333 11.06 29.08 11.1 29.16C11.1533 29.2533 11.1467 29.4333 11.08 29.7C11.0667 29.7533 11.0333 29.76 10.98 29.72C10.94 29.6933 10.92 29.68 10.92 29.68C10.8133 29.5467 10.74 29.3933 10.7 29.22C10.6733 29.0467 10.62 28.8867 10.54 28.74C10.5133 28.7133 10.4867 28.6867 10.46 28.66C10.4467 28.6333 10.4267 28.6133 10.4 28.6C10.3733 28.5733 10.3533 28.5467 10.34 28.52L10.2 28.32C10.12 28.2 10.0467 28.08 9.98 27.96C9.92667 27.84 9.86667 27.7133 9.8 27.58C9.74667 27.4867 9.7 27.36 9.66 27.2C9.64667 27.1867 9.64 27.1667 9.64 27.14C9.64 27.1267 9.63333 27.1133 9.62 27.1C9.60667 27.0733 9.6 27.0467 9.6 27.02C9.6 26.9933 9.59333 26.9667 9.58 26.94C9.59333 26.9533 9.58667 26.94 9.56 26.9C9.53333 26.86 9.52667 26.8533 9.54 26.88L9.44 26.78C9.41333 26.7533 9.38667 26.7 9.36 26.62C9.36 26.5933 9.35333 26.5667 9.34 26.54V26.5C9.32667 26.4333 9.32 26.3733 9.32 26.32C9.32 26.2533 9.32 26.1933 9.32 26.14C9.32 26.06 9.32 25.98 9.32 25.9C9.33333 25.82 9.34 25.74 9.34 25.66V17.56L9.26 17.4C9.24667 17.4133 9.23333 17.4267 9.22 17.44C9.20667 17.4533 9.19333 17.4667 9.18 17.48C9.12667 17.5467 9.06 17.6133 8.98 17.68C8.9 17.7333 8.80667 17.7533 8.7 17.74C8.68667 17.7267 8.66667 17.7133 8.64 17.7C8.61333 17.6867 8.58667 17.6733 8.56 17.66C8.56 17.7 8.54 17.7333 8.5 17.76C8.47333 17.7867 8.43333 17.78 8.38 17.74C8.34 17.6867 8.32 17.6533 8.32 17.64C8.32 17.64 8.3 17.6067 8.26 17.54C8.22 17.4733 8.16667 17.4533 8.1 17.48C8.07333 17.5333 8.05333 17.5667 8.04 17.58C8.01333 17.6333 7.98667 17.6933 7.96 17.76C7.94667 17.8133 7.93333 17.8667 7.92 17.92L7.74 18.56C7.7 18.6933 7.66 18.8333 7.62 18.98C7.59333 19.1133 7.56 19.2467 7.52 19.38C7.50667 19.4333 7.48667 19.4933 7.46 19.56C7.43333 19.6267 7.4 19.6867 7.36 19.74C7.34667 19.7533 7.33333 19.7733 7.32 19.8C7.30667 19.8267 7.28667 19.8467 7.26 19.86C7.24667 19.8733 7.22667 19.88 7.2 19.88C7.18667 19.88 7.16667 19.86 7.14 19.82C7.11333 19.78 7.09333 19.7533 7.08 19.74C7.05333 19.6867 7.02667 19.6333 7 19.58C6.98667 19.5267 6.96667 19.4733 6.94 19.42C6.88667 19.2867 6.84 19.1533 6.8 19.02C6.76 18.8867 6.72 18.7533 6.68 18.62C6.62667 18.4867 6.57333 18.36 6.52 18.24C6.46667 18.1067 6.40667 17.9733 6.34 17.84L6.28 17.72C6.22667 17.64 6.19333 17.58 6.18 17.54L6.1 17.56V23.74C6.1 24.0333 6.1 24.3733 6.1 24.76C6.11333 25.1467 6.12 25.4933 6.12 25.8C6.12 25.9067 6.12 26.0333 6.12 26.18C6.13333 26.3133 6.12667 26.4333 6.1 26.54C6.06 26.7533 5.96 26.8867 5.8 26.94C5.77333 26.9933 5.74667 27.0333 5.72 27.06C5.70667 27.0733 5.69333 27.0933 5.68 27.12C5.68 27.16 5.66667 27.18 5.64 27.18C5.62667 27.1933 5.61333 27.2067 5.6 27.22C5.58667 27.2333 5.57333 27.2533 5.56 27.28C5.56 27.2933 5.55333 27.3 5.54 27.3C5.54 27.3 5.54 27.3067 5.54 27.32C5.43333 27.4667 5.33333 27.62 5.24 27.78C5.16 27.9533 5.07333 28.1267 4.98 28.3C4.95333 28.3267 4.94 28.3467 4.94 28.36C4.92667 28.3733 4.91333 28.3867 4.9 28.4C4.88667 28.4267 4.86667 28.4467 4.84 28.46C4.84 28.4733 4.82667 28.4933 4.8 28.52C4.78667 28.52 4.78 28.52 4.78 28.52C4.78 28.5333 4.77333 28.54 4.76 28.54C4.73333 28.58 4.7 28.6467 4.66 28.74C4.63333 28.8467 4.58667 28.9133 4.52 28.94C4.46667 28.9533 4.42 28.9133 4.38 28.82C4.34 28.7267 4.30667 28.6733 4.28 28.66C4.22667 28.58 4.18 28.5533 4.14 28.58C4.12667 28.58 4.1 28.5933 4.06 28.62C4.03333 28.66 4.02 28.6867 4.02 28.7C4.00667 28.7133 3.99333 28.72 3.98 28.72C3.94 28.76 3.90667 28.7867 3.88 28.8C3.86667 28.9733 3.85333 29.14 3.84 29.3C3.84 29.4733 3.82667 29.6467 3.8 29.82C3.8 29.86 3.78667 29.9133 3.76 29.98C3.74667 30.0467 3.73333 30.06 3.72 30.02C3.69333 29.78 3.68 29.62 3.68 29.54C3.68 29.46 3.68 29.3733 3.68 29.28C3.68 29.1867 3.64667 29.0067 3.58 28.74L3.48 28.58C3.42667 28.4733 3.36667 28.34 3.3 28.18C3.23333 28.0333 3.14667 27.8933 3.04 27.76C3 27.7067 2.95333 27.66 2.9 27.62C2.86 27.58 2.81333 27.54 2.76 27.5C2.70667 27.4733 2.65333 27.4467 2.6 27.42C2.54667 27.3933 2.48667 27.3733 2.42 27.36C2.39333 27.36 2.37333 27.3533 2.36 27.34C2.34667 27.3267 2.33333 27.3067 2.32 27.28C2.30667 27.2533 2.28667 27.2333 2.26 27.22C2.24667 27.2733 2.24 27.3267 2.24 27.38C2.24 27.4467 2.22667 27.5067 2.2 27.56C2.2 27.5733 2.17333 27.5533 2.12 27.5C2.10667 27.4867 2.09333 27.4733 2.08 27.46C2.06667 27.4467 2.05333 27.4333 2.04 27.42C2.01333 27.3933 1.98667 27.36 1.96 27.32C1.93333 27.2933 1.90667 27.2733 1.88 27.26C1.86667 27.2733 1.85333 27.2733 1.84 27.26C1.84 27.2467 1.82667 27.24 1.8 27.24C1.78667 27.24 1.72667 27.1933 1.62 27.1C1.52667 27.02 1.47333 26.98 1.46 26.98C1.46 26.98 1.43333 26.9667 1.38 26.94C1.26 26.8733 1.18667 26.8 1.16 26.72C1.13333 26.6533 1.11333 26.6 1.1 26.56C1.1 26.5067 1.1 26.46 1.1 26.42V13.86C1.1 13.7533 1.1 13.6467 1.1 13.54C1.1 13.42 1.13333 13.3133 1.2 13.22C1.25333 13.14 1.32667 13.08 1.42 13.04C1.5 13.0133 1.56667 13 1.62 13C1.68667 12.9867 1.75333 12.9867 1.82 13C1.9 13 1.97333 13 2.04 13H13.8C14.1067 13 14.28 13.14 14.32 13.42C14.3467 13.4867 14.36 13.56 14.36 13.64C14.36 13.72 14.36 13.7933 14.36 13.86C14.36 13.9267 14.3533 13.9933 14.34 14.06C14.34 14.1267 14.34 14.1933 14.34 14.26V25.82ZM23.9892 29.74C23.9759 29.8067 23.9692 29.9133 23.9692 30.06C23.9692 30.2067 23.9492 30.2467 23.9092 30.18C23.8559 30.0733 23.8426 29.9467 23.8692 29.8C23.9092 29.6667 23.8959 29.5467 23.8292 29.44C23.8026 29.3867 23.7892 29.4133 23.7892 29.52C23.7892 29.64 23.7892 29.7533 23.7892 29.86C23.7892 29.9667 23.7759 30 23.7492 29.96C23.6959 29.8267 23.6759 29.6867 23.6892 29.54C23.7159 29.4067 23.7159 29.2733 23.6892 29.14C23.6226 29.0867 23.5559 29.0267 23.4892 28.96C23.4359 28.8933 23.3892 28.8333 23.3492 28.78C23.2959 28.7133 23.2492 28.6467 23.2092 28.58C23.1692 28.5267 23.1292 28.4733 23.0892 28.42C22.9826 28.3133 22.8826 28.18 22.7892 28.02L22.5492 27.6C22.5492 27.5867 22.5292 27.54 22.4892 27.46C22.4492 27.3933 22.4159 27.3467 22.3892 27.32C22.3626 27.2933 22.3359 27.2733 22.3092 27.26C22.2559 27.26 22.2292 27.28 22.2292 27.32C22.2159 27.4533 22.2092 27.58 22.2092 27.7C22.2092 27.8333 22.1959 27.9667 22.1692 28.1C22.1692 28.1267 22.1626 28.1067 22.1492 28.04C22.1359 27.9733 22.1292 27.92 22.1292 27.88C22.1159 27.7733 22.1026 27.66 22.0892 27.54C22.0892 27.42 22.0826 27.3067 22.0692 27.2H21.9492C21.1492 27.1733 20.4226 27.06 19.7692 26.86C19.1159 26.66 18.5559 26.3533 18.0892 25.94L17.9692 25.84L17.8292 25.7C17.4826 25.3267 17.1959 24.8867 16.9692 24.38C16.7559 23.8733 16.6159 23.2733 16.5492 22.58C16.5359 22.58 16.5292 22.5667 16.5292 22.54C16.5159 22.5133 16.5092 22.4467 16.5092 22.34C16.5092 22.3267 16.5092 22.3133 16.5092 22.3C16.5226 22.2867 16.5292 22.2733 16.5292 22.26C16.5159 22.1933 16.5092 22.1267 16.5092 22.06C16.5092 21.98 16.5092 21.9 16.5092 21.82V21.68C16.5226 20.88 16.6492 20.1667 16.8892 19.54C17.1292 18.9133 17.4626 18.38 17.8892 17.94C17.9159 17.9267 17.9292 17.9133 17.9292 17.9C17.9426 17.8867 17.9559 17.8733 17.9692 17.86C17.9826 17.8467 18.0092 17.8267 18.0492 17.8C18.0892 17.76 18.1092 17.74 18.1092 17.74C18.1492 17.7 18.1826 17.6733 18.2092 17.66C19.1959 16.82 20.5292 16.4 22.2092 16.4H22.6292C22.6826 16.4 22.7159 16.4067 22.7292 16.42C22.8492 16.42 22.9359 16.4267 22.9892 16.44C23.1759 16.4267 23.3159 16.44 23.4092 16.48C23.4759 16.4933 23.5426 16.5067 23.6092 16.52C23.6759 16.52 23.7426 16.5333 23.8092 16.56C24.5026 16.6933 25.1026 16.9267 25.6092 17.26C26.1159 17.58 26.5359 17.9667 26.8692 18.42C26.9359 18.4733 26.9892 18.54 27.0292 18.62C27.0692 18.7 27.1092 18.7733 27.1492 18.84L27.3092 19.12C27.3226 19.16 27.3359 19.2 27.3492 19.24C27.3759 19.2667 27.3959 19.3 27.4092 19.34C27.4359 19.38 27.4559 19.42 27.4692 19.46C27.4826 19.5 27.4959 19.54 27.5092 19.58C27.5759 19.7667 27.6359 19.96 27.6892 20.16C27.7559 20.36 27.8026 20.56 27.8292 20.76C27.8292 20.8133 27.8359 20.8533 27.8492 20.88C27.8759 20.9867 27.8892 21.0933 27.8892 21.2C27.8892 21.3067 27.8959 21.4133 27.9092 21.52V22.44C27.9092 22.6267 27.8292 22.78 27.6692 22.9C27.6292 22.9267 27.5826 22.9667 27.5292 23.02C27.5026 23.0867 27.4759 23.12 27.4492 23.12C27.4492 23.12 27.4226 23.0933 27.3692 23.04C27.3426 23.04 27.3026 23.0467 27.2492 23.06C27.1959 23.0733 27.1559 23.0867 27.1292 23.1C27.0759 23.1133 27.0292 23.1267 26.9892 23.14C26.9492 23.14 26.9026 23.14 26.8492 23.14C26.7426 23.1533 26.6426 23.18 26.5492 23.22C26.4559 23.26 26.3559 23.2933 26.2492 23.32C26.1692 23.3333 26.0826 23.34 25.9892 23.34C25.8959 23.34 25.8026 23.34 25.7092 23.34C25.5892 23.3533 25.4759 23.38 25.3692 23.42C25.2759 23.46 25.1759 23.4733 25.0692 23.46C24.9892 23.4467 24.9092 23.4333 24.8292 23.42C24.7492 23.3933 24.6626 23.3733 24.5692 23.36C24.5159 23.3733 24.4626 23.3867 24.4092 23.4C24.3692 23.4133 24.3226 23.4267 24.2692 23.44C24.2292 23.4533 24.1892 23.46 24.1492 23.46C24.1092 23.46 24.0692 23.4733 24.0292 23.5C23.9892 23.5267 23.9292 23.58 23.8492 23.66H26.5892C26.6426 23.66 26.6959 23.66 26.7492 23.66C26.8159 23.6467 26.8826 23.64 26.9492 23.64H27.0492C27.1292 23.64 27.2226 23.6533 27.3292 23.68C27.3559 23.68 27.3759 23.6867 27.3892 23.7C27.4026 23.7 27.4159 23.7 27.4292 23.7C27.5226 23.74 27.5892 23.8133 27.6292 23.92C27.6559 24 27.6626 24.0667 27.6492 24.12C27.6492 24.2133 27.6292 24.32 27.5892 24.44L27.5292 24.6C27.4492 24.8133 27.3426 24.9933 27.2092 25.14C27.1559 25.2067 27.1026 25.2733 27.0492 25.34C26.9959 25.4067 26.9359 25.4733 26.8692 25.54C26.8159 25.5933 26.7626 25.6467 26.7092 25.7C26.6559 25.7533 26.5959 25.8067 26.5292 25.86L26.4092 25.98C26.3426 26.0467 26.2826 26.1267 26.2292 26.22C26.1892 26.3 26.1426 26.38 26.0892 26.46C26.0492 26.5 26.0226 26.5333 26.0092 26.56C26.0359 26.5333 26.0359 26.5467 26.0092 26.6C25.9826 26.6533 25.9559 26.6667 25.9292 26.64C25.9026 26.7067 25.8692 26.7667 25.8292 26.82C25.8026 26.8733 25.7626 26.9533 25.7092 27.06C25.6826 27.1267 25.6492 27.1867 25.6092 27.24C25.5826 27.3067 25.5559 27.3733 25.5292 27.44C25.4492 27.5867 25.3759 27.7067 25.3092 27.8C25.2959 27.84 25.2759 27.8733 25.2492 27.9C25.2359 27.94 25.2159 27.9733 25.1892 28L25.1092 28.12C25.0959 28.1333 25.0826 28.1533 25.0692 28.18C25.0559 28.2067 25.0359 28.2333 25.0092 28.26C24.9292 28.3533 24.8492 28.44 24.7692 28.52C24.6892 28.6133 24.6092 28.7067 24.5292 28.8L24.3892 28.94C24.3626 28.98 24.3292 29.02 24.2892 29.06C24.2626 29.1 24.2292 29.1333 24.1892 29.16C24.1359 29.2133 24.0959 29.24 24.0692 29.24C24.0559 29.32 24.0426 29.4 24.0292 29.48C24.0292 29.5733 24.0159 29.66 23.9892 29.74ZM21.4892 20.48H21.5892C21.7626 20.48 21.9359 20.48 22.1092 20.48C22.2826 20.4667 22.4559 20.4667 22.6292 20.48L23.0092 20.46V20.22C22.9959 20.2067 22.9892 20.1933 22.9892 20.18C22.9892 20.1267 22.9826 20.0667 22.9692 20C22.9692 19.9333 22.9626 19.8733 22.9492 19.82L22.8292 19.54C22.8159 19.5267 22.8092 19.52 22.8092 19.52C22.8092 19.5067 22.8026 19.4933 22.7892 19.48C22.7226 19.3867 22.6492 19.3267 22.5692 19.3C22.5692 19.2867 22.5492 19.28 22.5092 19.28H22.4892C22.3959 19.28 22.3026 19.2867 22.2092 19.3C22.1159 19.3 22.0226 19.3067 21.9292 19.32C21.9026 19.3333 21.8626 19.3467 21.8092 19.36C21.7692 19.36 21.7292 19.3733 21.6892 19.4C21.6759 19.4133 21.6692 19.4267 21.6692 19.44C21.6692 19.44 21.6626 19.4467 21.6492 19.46C21.6226 19.4867 21.6026 19.52 21.5892 19.56C21.5759 19.6 21.5559 19.6333 21.5292 19.66C21.4492 19.8733 21.4092 20.0267 21.4092 20.12C21.4226 20.2133 21.4492 20.3333 21.4892 20.48ZM22.0292 24.28C22.0559 24.2933 22.1359 24.3 22.2692 24.3C22.3492 24.2733 22.4226 24.2333 22.4892 24.18C22.5692 24.1267 22.6359 24.0733 22.6892 24.02L22.8692 23.84C22.9759 23.76 23.0559 23.7133 23.1092 23.7C23.1626 23.6867 23.2226 23.6733 23.2892 23.66C23.1959 23.6333 23.1026 23.6067 23.0092 23.58C22.9292 23.5533 22.8426 23.5267 22.7492 23.5C22.6026 23.4467 22.4559 23.3867 22.3092 23.32C22.1759 23.2533 22.0359 23.1933 21.8892 23.14L21.4892 23.02C21.4626 22.9933 21.4359 22.98 21.4092 22.98V23.08C21.4092 23.0933 21.4092 23.1533 21.4092 23.26C21.4226 23.3533 21.4292 23.4133 21.4292 23.44C21.4426 23.5867 21.4759 23.7333 21.5292 23.88C21.5959 24.0133 21.6826 24.12 21.7892 24.2L21.9492 24.26C21.9626 24.2733 21.9892 24.28 22.0292 24.28ZM40.9102 25.82C40.9102 25.9533 40.9168 26.0933 40.9302 26.24C40.9435 26.3867 40.9302 26.52 40.8902 26.64L40.8302 26.74C40.8035 26.78 40.7702 26.82 40.7302 26.86C40.7035 26.8867 40.6635 26.9133 40.6102 26.94C40.5835 26.9933 40.5568 27.0467 40.5302 27.1C40.5035 27.1533 40.4768 27.2067 40.4502 27.26C40.4368 27.2867 40.4235 27.3133 40.4102 27.34C40.3968 27.3667 40.3835 27.3933 40.3702 27.42C40.3568 27.4467 40.3435 27.4867 40.3302 27.54C40.3168 27.5933 40.3035 27.6067 40.2902 27.58C40.2635 27.54 40.2502 27.4933 40.2502 27.44C40.2502 27.3867 40.2435 27.3333 40.2302 27.28C40.1768 27.3867 40.1168 27.4267 40.0502 27.4L39.9102 27.24C39.8968 27.24 39.8902 27.2467 39.8902 27.26C39.8768 27.4333 39.8635 27.6133 39.8502 27.8C39.8502 27.9867 39.8368 28.1733 39.8102 28.36C39.8102 28.3867 39.7835 28.4133 39.7302 28.44C39.7168 28.4533 39.6968 28.4733 39.6702 28.5C39.6568 28.54 39.6502 28.5533 39.6502 28.54C39.6235 28.34 39.6102 28.1333 39.6102 27.92C39.6102 27.72 39.5902 27.52 39.5502 27.32C39.5235 27.3867 39.4702 27.4467 39.3902 27.5C39.3635 27.5267 39.3435 27.54 39.3302 27.54C39.3168 27.6067 39.3168 27.7 39.3302 27.82C39.3568 27.9533 39.3635 28.06 39.3502 28.14C39.3502 28.2333 39.3102 28.2667 39.2302 28.24C39.1102 28.2 39.0702 28.0933 39.1102 27.92C39.1635 27.7467 39.1768 27.6 39.1502 27.48L39.0902 27.42H38.9302C38.9168 27.42 38.9035 27.4133 38.8902 27.4C38.8768 27.4 38.8635 27.4067 38.8502 27.42C38.8368 27.7 38.8235 27.9733 38.8102 28.24C38.8102 28.52 38.7968 28.7933 38.7702 29.06C38.7702 29.06 38.7435 29.0333 38.6902 28.98C38.6768 28.9667 38.6635 28.9467 38.6502 28.92C38.6502 28.9067 38.6368 28.8933 38.6102 28.88C38.5702 28.8267 38.5235 28.7667 38.4702 28.7C38.4302 28.6333 38.3768 28.5933 38.3102 28.58C38.2302 28.5667 38.1502 28.6 38.0702 28.68C38.0168 28.7067 37.9902 28.72 37.9902 28.72C37.9768 28.6133 37.9635 28.5 37.9502 28.38C37.9502 28.2733 37.9502 28.1667 37.9502 28.06C37.8568 28.1533 37.7902 28.2133 37.7502 28.24C37.7368 28.2533 37.7168 28.2533 37.6902 28.24C37.6768 28.24 37.6702 28.2533 37.6702 28.28C37.6568 28.4267 37.6435 28.6733 37.6302 29.02C37.6302 29.38 37.6302 29.7667 37.6302 30.18C37.6302 30.6067 37.6235 30.9933 37.6102 31.34C37.6102 31.7 37.6035 31.9533 37.5902 32.1C37.5902 32.1133 37.5768 32.1067 37.5502 32.08C37.5368 32.0533 37.5235 32.0333 37.5102 32.02C37.4968 31.9933 37.4635 31.92 37.4102 31.8C37.3568 31.6933 37.3302 31.6333 37.3302 31.62C37.3168 31.4733 37.3035 31.2333 37.2902 30.9C37.2902 30.58 37.2902 30.2333 37.2902 29.86C37.2902 29.4867 37.2835 29.1333 37.2702 28.8C37.2702 28.48 37.2635 28.2467 37.2502 28.1C37.2502 28.0733 37.2368 28.0533 37.2102 28.04C37.1968 28.04 37.1835 28.0333 37.1702 28.02L36.8702 27.54C36.8168 27.46 36.7635 27.3933 36.7102 27.34C36.6968 27.3133 36.6835 27.28 36.6702 27.24C36.6568 27.2133 36.6435 27.2133 36.6302 27.24C36.6035 27.32 36.5968 27.4067 36.6102 27.5C36.6235 27.6067 36.6035 27.7 36.5502 27.78C36.5235 27.82 36.5035 27.7933 36.4902 27.7C36.4902 27.6067 36.4835 27.5333 36.4702 27.48C36.4568 27.4 36.4435 27.32 36.4302 27.24C36.4168 27.16 36.3968 27.08 36.3702 27C36.3568 27 36.3435 27 36.3302 27C36.3302 26.9867 36.3168 26.98 36.2902 26.98C36.1835 26.94 36.0968 26.8733 36.0302 26.78C36.0035 26.7533 35.9768 26.7 35.9502 26.62C35.9235 26.5267 35.9102 26.4267 35.9102 26.32C35.9235 26.2 35.9302 26.0933 35.9302 26V24.82C35.9302 24.58 35.9302 24.4333 35.9302 24.38C35.9435 24.3267 35.9235 24.2267 35.8702 24.08C35.8568 24.0933 35.8368 24.1067 35.8102 24.12C35.7968 24.1333 35.7835 24.14 35.7702 24.14L35.4102 24.44C35.3835 24.4533 35.3502 24.4667 35.3102 24.48C35.2835 24.4933 35.2635 24.5133 35.2502 24.54C35.2368 24.6733 35.2235 24.8133 35.2102 24.96C35.2102 25.0933 35.1968 25.2267 35.1702 25.36C35.1702 25.3733 35.1435 25.4067 35.0902 25.46C35.0502 25.5 35.0235 25.5267 35.0102 25.54C34.9302 25.6067 34.8435 25.66 34.7502 25.7C34.6568 25.7267 34.5635 25.7667 34.4702 25.82C34.4168 25.8467 34.3635 25.88 34.3102 25.92C34.2568 25.96 34.1968 25.9733 34.1302 25.96C33.9702 25.9333 33.8435 25.8333 33.7502 25.66C33.6702 25.4867 33.5835 25.3533 33.4902 25.26C33.3968 25.14 33.3502 25.0867 33.3502 25.1C33.3502 25.1133 33.3568 25.1267 33.3702 25.14C33.3835 25.1533 33.3502 25.1067 33.2702 25C33.2568 24.9733 33.2302 24.94 33.1902 24.9C33.1768 24.9933 33.1835 25.12 33.2102 25.28C33.2368 25.44 33.2502 25.58 33.2502 25.7C33.2502 25.8067 33.2035 25.84 33.1102 25.8C32.9635 25.7333 32.9168 25.5933 32.9702 25.38C33.0368 25.1667 33.0568 24.98 33.0302 24.82C33.0302 24.8067 33.0168 24.7933 32.9902 24.78C32.9635 24.7667 32.9502 24.7667 32.9502 24.78C32.9235 24.8867 32.9102 25 32.9102 25.12C32.9102 25.24 32.8968 25.36 32.8702 25.48C32.8568 25.4933 32.8435 25.4867 32.8302 25.46C32.8168 25.4333 32.8035 25.4133 32.7902 25.4C32.7635 25.3733 32.7302 25.3533 32.6902 25.34C32.6502 25.3267 32.6168 25.3133 32.5902 25.3C32.5235 25.2733 32.4635 25.24 32.4102 25.2C32.3568 25.16 32.2968 25.1267 32.2302 25.1C32.2168 25.0867 32.2035 25.08 32.1902 25.08C32.1902 25.2 32.1502 25.26 32.0702 25.26C32.0035 25.2733 31.9568 25.1933 31.9302 25.02C31.8902 25.02 31.8702 25 31.8702 24.96C31.8568 24.9067 31.8568 24.8467 31.8702 24.78C31.8968 24.7133 31.9102 24.6533 31.9102 24.6C31.8968 24.6 31.8835 24.6 31.8702 24.6C31.8702 24.5867 31.8702 24.58 31.8702 24.58V24.6C31.8835 24.6133 31.8835 24.62 31.8702 24.62C31.8702 24.62 31.8635 24.62 31.8502 24.62C31.8502 24.62 31.8502 24.6133 31.8502 24.6C31.8368 24.7067 31.8435 24.84 31.8702 25C31.8968 25.1467 31.9102 25.2733 31.9102 25.38C31.9235 25.4867 31.8768 25.5267 31.7702 25.5C31.6768 25.4733 31.6302 25.4067 31.6302 25.3C31.6302 25.18 31.6435 25.0533 31.6702 24.92C31.7102 24.7733 31.7168 24.6467 31.6902 24.54C31.6902 24.5267 31.6768 24.52 31.6502 24.52C31.6502 24.56 31.6502 24.6067 31.6502 24.66C31.6635 24.7133 31.6702 24.7533 31.6702 24.78V24.84C31.6702 24.9067 31.6502 24.9333 31.6102 24.92C31.5835 24.92 31.5702 24.9067 31.5702 24.88C31.5702 24.8933 31.5635 24.88 31.5502 24.84C31.5368 24.8 31.5368 24.78 31.5502 24.78C31.5502 24.66 31.5568 24.6 31.5702 24.6C31.5835 24.5867 31.5902 24.58 31.5902 24.58C31.5902 24.58 31.5768 24.54 31.5502 24.46C31.5368 24.46 31.5235 24.46 31.5102 24.46V24.5C31.5102 24.5267 31.5168 24.5667 31.5302 24.62C31.5435 24.66 31.5368 24.7 31.5102 24.74C31.5102 24.7933 31.4968 24.8133 31.4702 24.8C31.4435 24.7733 31.4302 24.7533 31.4302 24.74C31.4168 24.74 31.4102 24.74 31.4102 24.74C31.4102 24.7267 31.4102 24.72 31.4102 24.72C31.3968 24.68 31.3968 24.6333 31.4102 24.58C31.4235 24.5267 31.4302 24.4533 31.4302 24.36C31.4035 24.3333 31.3902 24.3333 31.3902 24.36C31.3768 24.44 31.3768 24.56 31.3902 24.72C31.4168 24.88 31.3968 24.9333 31.3302 24.88C31.2368 24.8133 31.2035 24.72 31.2302 24.6C31.2702 24.4667 31.2768 24.3467 31.2502 24.24C31.2502 24.1867 31.2502 24.1733 31.2502 24.2C31.2502 24.2267 31.2435 24.2533 31.2302 24.28V24.36C31.2302 24.4533 31.2168 24.4867 31.1902 24.46C31.1768 24.46 31.1635 24.4533 31.1502 24.44C31.1502 24.4933 31.1368 24.5133 31.1102 24.5C30.9502 24.34 30.8835 24.22 30.9102 24.14L30.7902 23.86C30.7768 23.8333 30.7635 23.8133 30.7502 23.8C30.7368 23.7733 30.7168 23.7467 30.6902 23.72C30.5035 23.5467 30.3435 23.36 30.2102 23.16C30.2102 23.16 30.1968 23.1467 30.1702 23.12L30.1102 23.02C30.0702 22.9667 30.0302 22.9067 29.9902 22.84C29.9635 22.7733 29.9368 22.7133 29.9102 22.66C29.8568 22.6067 29.7968 22.5133 29.7302 22.38C29.7035 22.3 29.6768 22.2067 29.6502 22.1C29.5968 21.9267 29.5568 21.7333 29.5302 21.52C29.5035 21.3067 29.4768 21.08 29.4502 20.84C29.4368 20.7067 29.4235 20.5733 29.4102 20.44C29.4102 20.2933 29.4102 20.1467 29.4102 20C29.3968 19.5867 29.3902 19.2133 29.3902 18.88C29.4035 18.5467 29.4102 18.3133 29.4102 18.18V17.14C29.4102 17.0333 29.4435 16.9267 29.5102 16.82L29.6302 16.7L29.7502 16.64C29.8302 16.6133 29.8968 16.6 29.9502 16.6H33.1102C33.2035 16.6 33.2968 16.6 33.3902 16.6C33.4968 16.5867 33.5968 16.5867 33.6902 16.6C33.7968 16.6 33.9035 16.64 34.0102 16.72C34.0902 16.7867 34.1502 16.8733 34.1902 16.98C34.2168 17.0333 34.2302 17.0867 34.2302 17.14C34.2302 17.1933 34.2302 17.2533 34.2302 17.32C34.2302 17.4133 34.2235 17.5067 34.2102 17.6C34.2102 17.6933 34.2102 17.78 34.2102 17.86V19.72C34.2102 19.8667 34.2235 20.0133 34.2502 20.16C34.2768 20.2933 34.3435 20.4 34.4502 20.48C34.4902 20.5067 34.5368 20.5333 34.5902 20.56C34.6035 20.56 34.6102 20.5667 34.6102 20.58C34.6235 20.58 34.6368 20.58 34.6502 20.58C34.7168 20.5933 34.7835 20.6067 34.8502 20.62C34.9168 20.62 34.9968 20.62 35.0902 20.62C35.2368 20.62 35.3568 20.6 35.4502 20.56C35.4768 20.56 35.4968 20.56 35.5102 20.56C35.5235 20.5467 35.5368 20.54 35.5502 20.54L35.7102 20.44C35.7768 20.3733 35.8302 20.3 35.8702 20.22C35.8968 20.1667 35.9102 20.1267 35.9102 20.1C35.9235 20.06 35.9302 19.9933 35.9302 19.9V17.68C35.9302 17.44 35.9235 17.2667 35.9102 17.16C35.8968 17.0533 35.9568 16.92 36.0902 16.76C36.1702 16.6533 36.2835 16.6 36.4302 16.6C36.5635 16.5733 36.6902 16.5733 36.8102 16.6H40.0502C40.1168 16.6 40.1835 16.6 40.2502 16.6C40.3302 16.5867 40.4035 16.5867 40.4702 16.6C40.7235 16.64 40.8702 16.7933 40.9102 17.06V17.16C40.9368 17.24 40.9368 17.3333 40.9102 17.44V25.82ZM31.9902 24.92C31.9902 24.8533 31.9902 24.7933 31.9902 24.74C32.0035 24.6867 32.0035 24.64 31.9902 24.6C31.9902 24.6 31.9702 24.6 31.9302 24.6C31.9302 24.64 31.9368 24.6933 31.9502 24.76C31.9635 24.8133 31.9768 24.8667 31.9902 24.92ZM55.457 26.62C55.4437 26.7133 55.4104 26.7867 55.357 26.84C55.3037 26.8933 55.2637 26.9267 55.237 26.94C55.2104 26.98 55.1837 27.04 55.157 27.12L54.917 27.66C54.9037 27.6867 54.8904 27.7333 54.877 27.8C54.8637 27.8667 54.8504 27.8867 54.837 27.86C54.797 27.7667 54.7837 27.6933 54.797 27.64C54.8104 27.6 54.797 27.5267 54.757 27.42C54.6237 27.58 54.5104 27.7533 54.417 27.94C54.3237 28.1267 54.2237 28.3133 54.117 28.5C54.037 28.66 53.9504 28.8133 53.857 28.96C53.7637 29.1067 53.6704 29.2533 53.577 29.4C53.5504 29.4267 53.5237 29.4667 53.497 29.52C53.4437 29.6133 53.357 29.72 53.237 29.84C53.117 29.9733 52.9904 29.9867 52.857 29.88C52.7237 29.7733 52.6237 29.6333 52.557 29.46C52.4904 29.2867 52.4304 29.1267 52.377 28.98C52.3237 28.8333 52.2704 28.6867 52.217 28.54C52.177 28.3933 52.1237 28.2533 52.057 28.12C52.0437 28.0933 52.0304 28.0667 52.017 28.04C52.017 28.0133 52.0037 27.9933 51.977 27.98C51.9637 27.9667 51.9504 27.9533 51.937 27.94C51.9237 27.9267 51.9104 27.9133 51.897 27.9C51.8837 27.7933 51.877 27.68 51.877 27.56C51.877 27.4533 51.8704 27.3467 51.857 27.24C51.8037 27.24 51.757 27.26 51.717 27.3C51.6637 27.3533 51.6104 27.4067 51.557 27.46C51.5037 27.5267 51.437 27.56 51.357 27.56C51.2637 27.5733 51.177 27.5533 51.097 27.5C51.017 27.4467 50.9437 27.3933 50.877 27.34C50.7437 27.2333 50.6037 27.1133 50.457 26.98C50.417 26.94 50.377 26.9 50.337 26.86C50.297 26.82 50.257 26.7733 50.217 26.72C50.1904 26.68 50.1637 26.64 50.137 26.6C50.1104 26.56 50.0837 26.52 50.057 26.48C50.017 26.4133 49.977 26.3533 49.937 26.3C49.9104 26.2333 49.8837 26.1733 49.857 26.12L49.397 25.36C49.3304 25.2533 49.257 25.14 49.177 25.02C49.1104 24.9 49.0437 24.78 48.977 24.66L48.797 24.38C48.7437 24.3 48.697 24.2267 48.657 24.16C48.617 24.08 48.5704 24 48.517 23.92C48.517 23.9067 48.5104 23.9 48.497 23.9C48.497 23.8867 48.497 23.88 48.497 23.88C48.497 23.8667 48.4904 23.86 48.477 23.86C48.477 23.86 48.477 23.8533 48.477 23.84C48.477 23.8533 48.457 23.82 48.417 23.74V23.72C48.4037 23.72 48.397 23.72 48.397 23.72C48.397 23.7067 48.397 23.7 48.397 23.7L48.217 23.5C48.1904 23.7933 48.177 24.1133 48.177 24.46C48.177 24.8067 48.1637 25.1333 48.137 25.44C48.137 25.5067 48.137 25.5733 48.137 25.64C48.1504 25.7067 48.1637 25.7733 48.177 25.84C48.1904 25.92 48.197 26.0067 48.197 26.1C48.197 26.1933 48.177 26.2733 48.137 26.34C48.1237 26.3533 48.1037 26.3733 48.077 26.4C48.0637 26.4267 48.0437 26.4333 48.017 26.42H47.997C47.9704 26.3933 47.957 26.3533 47.957 26.3C47.957 26.3533 47.957 26.4133 47.957 26.48C47.957 26.5333 47.9437 26.5867 47.917 26.64C47.917 26.6533 47.9037 26.6733 47.877 26.7C47.877 26.7267 47.8637 26.7533 47.837 26.78C47.797 26.8333 47.7504 26.88 47.697 26.92C47.657 26.9467 47.617 26.98 47.577 27.02C47.577 27.0333 47.5637 27.0533 47.537 27.08C47.537 27.12 47.517 27.16 47.477 27.2C47.4504 27.2533 47.417 27.3 47.377 27.34C47.337 27.38 47.297 27.4267 47.257 27.48C47.2037 27.5333 47.157 27.6 47.117 27.68C47.077 27.76 47.037 27.84 46.997 27.92C46.9704 28.0133 46.9304 28.1067 46.877 28.2C46.8504 28.2533 46.817 28.3 46.777 28.34C46.7504 28.3933 46.717 28.44 46.677 28.48C46.6504 28.5067 46.6237 28.5267 46.597 28.54C46.5837 28.5667 46.5704 28.5933 46.557 28.62C46.557 28.66 46.5437 28.6933 46.517 28.72C46.4504 28.8267 46.4037 28.8333 46.377 28.74C46.3504 28.6467 46.3237 28.58 46.297 28.54C46.2304 28.4867 46.177 28.4267 46.137 28.36C46.057 28.24 45.9904 28.1 45.937 27.94C45.8837 27.7933 45.837 27.6467 45.797 27.5C45.797 27.4733 45.7904 27.4533 45.777 27.44C45.777 27.4267 45.777 27.4133 45.777 27.4L45.717 27.26V27.12C45.7037 27.1467 45.697 27.18 45.697 27.22C45.697 27.2733 45.6837 27.3067 45.657 27.32C45.6304 27.3333 45.617 27.32 45.617 27.28C45.617 27.2533 45.6037 27.24 45.577 27.24C45.537 27.36 45.4837 27.48 45.417 27.6C45.3637 27.72 45.2837 27.8133 45.177 27.88C45.017 28.08 44.957 28.2667 44.997 28.44C45.037 28.6267 45.0837 28.8133 45.137 29C45.1904 29.1867 45.1504 29.38 45.017 29.58C45.0037 29.6467 44.9904 29.7133 44.977 29.78C44.9637 29.8467 44.9437 29.9133 44.917 29.98C44.9037 29.9933 44.8837 30 44.857 30C44.8437 30 44.837 29.9933 44.837 29.98C44.8104 29.7 44.797 29.4133 44.797 29.12C44.8104 28.84 44.797 28.5533 44.757 28.26C44.757 28.1933 44.7504 28.2267 44.737 28.36C44.737 28.4933 44.7304 28.6267 44.717 28.76C44.717 28.8933 44.7037 28.9333 44.677 28.88C44.6237 28.72 44.6037 28.5467 44.617 28.36C44.6437 28.1867 44.6437 28.0133 44.617 27.84C44.6037 27.84 44.5837 27.8333 44.557 27.82C44.5437 27.8067 44.5437 27.8 44.557 27.8C44.517 27.7733 44.477 27.7333 44.437 27.68C44.4104 27.64 44.3837 27.6 44.357 27.56C44.317 27.4933 44.277 27.4267 44.237 27.36C44.2104 27.2933 44.1637 27.2333 44.097 27.18C44.097 27.2467 44.0837 27.2867 44.057 27.3C44.0304 27.3133 44.0104 27.2933 43.997 27.24C43.997 27.2 43.9904 27.1733 43.977 27.16L43.917 27.06C43.917 27.0733 43.9104 27.08 43.897 27.08C43.897 27.0933 43.897 27.1067 43.897 27.12C43.857 27.32 43.8437 27.42 43.857 27.42C43.8704 27.4333 43.8504 27.2933 43.797 27C43.7837 27 43.7704 27 43.757 27C43.757 26.9867 43.7437 26.98 43.717 26.98C43.6104 26.94 43.5237 26.8733 43.457 26.78C43.4304 26.7533 43.4037 26.7 43.377 26.62C43.3504 26.5267 43.337 26.42 43.337 26.3C43.3504 26.18 43.357 26.0733 43.357 25.98V17.54C43.357 17.4733 43.3504 17.4067 43.337 17.34C43.337 17.26 43.3437 17.1867 43.357 17.12C43.357 17.0667 43.3704 17 43.397 16.92C43.4237 16.8667 43.4437 16.8333 43.457 16.82C43.4837 16.7933 43.5037 16.7733 43.517 16.76C43.597 16.6533 43.7104 16.6 43.857 16.6C43.9637 16.5867 44.0704 16.5867 44.177 16.6C44.2837 16.6 44.3837 16.6 44.477 16.6H47.397C47.517 16.6 47.6237 16.6333 47.717 16.7L47.837 16.82C47.8504 16.8333 47.8704 16.8667 47.897 16.92C47.9237 17 47.937 17.0667 47.937 17.12V20H48.377L48.577 19.64C48.6037 19.6 48.6237 19.5667 48.637 19.54C48.6637 19.5 48.6837 19.4667 48.697 19.44L49.037 18.84C49.1437 18.64 49.2504 18.44 49.357 18.24C49.477 18.04 49.5904 17.84 49.697 17.64C49.7237 17.5867 49.7637 17.5067 49.817 17.4C49.8837 17.2933 49.9437 17.2 49.997 17.12C50.0237 17.08 50.0437 17.04 50.057 17C50.0837 16.96 50.1104 16.9267 50.137 16.9C50.1637 16.8333 50.217 16.7733 50.297 16.72C50.377 16.6533 50.4837 16.6133 50.617 16.6C50.7504 16.5733 50.8837 16.5667 51.017 16.58C51.1637 16.5933 51.297 16.6 51.417 16.6H53.797C53.9037 16.6 54.017 16.5933 54.137 16.58C54.2704 16.5667 54.397 16.5733 54.517 16.6C54.6504 16.6 54.7637 16.6467 54.857 16.74C54.9504 16.8333 54.997 16.9467 54.997 17.08C54.997 17.1333 54.9904 17.18 54.977 17.22C54.9637 17.26 54.9437 17.3 54.917 17.34L54.757 17.62C54.7037 17.7 54.6504 17.7867 54.597 17.88C54.557 17.96 54.5104 18.0467 54.457 18.14C54.457 18.1533 54.4504 18.16 54.437 18.16C54.437 18.16 54.437 18.1667 54.437 18.18L53.697 19.42C53.657 19.4733 53.6304 19.5267 53.617 19.58C53.5237 19.7667 53.4304 19.9533 53.337 20.14C53.2437 20.3133 53.137 20.4667 53.017 20.6C52.9904 20.6533 52.957 20.7067 52.917 20.76C52.8904 20.8 52.857 20.8467 52.817 20.9C52.7504 21.0333 52.677 21.16 52.597 21.28L52.437 21.54C52.437 20.9533 52.437 20.5533 52.437 20.34C52.437 20.1133 52.4304 20.0133 52.417 20.04C52.417 20.0667 52.417 20.1667 52.417 20.34C52.417 20.5133 52.4104 20.7067 52.397 20.92C52.397 21.1333 52.397 21.3267 52.397 21.5C52.397 21.66 52.397 21.74 52.397 21.74L52.537 21.94L52.717 22.24C52.7704 22.2933 52.8037 22.34 52.817 22.38L53.237 22.94C53.3837 23.1267 53.517 23.3267 53.637 23.54C53.7704 23.7533 53.897 23.9667 54.017 24.18L54.917 25.52C54.957 25.5867 54.997 25.6533 55.037 25.72C55.0904 25.7867 55.137 25.8533 55.177 25.92C55.2037 25.9467 55.2437 26.0067 55.297 26.1C55.3637 26.18 55.4104 26.2533 55.437 26.32C55.4504 26.3333 55.457 26.3467 55.457 26.36C55.457 26.3733 55.4637 26.3933 55.477 26.42C55.4904 26.4733 55.4837 26.54 55.457 26.62ZM47.937 25.78C47.937 25.8467 47.937 25.92 47.937 26C47.9504 26.08 47.957 26.1533 47.957 26.22C47.957 26.18 47.957 26.14 47.957 26.1C47.9704 26.0467 47.977 25.9933 47.977 25.94C47.9904 25.8733 47.997 25.8133 47.997 25.76C47.997 25.7067 47.997 25.66 47.997 25.62L47.937 23.72V25.78ZM67.9373 26.28C67.9373 26.3333 67.9307 26.3733 67.9173 26.4C67.9173 26.5733 67.884 26.7 67.8173 26.78C67.804 26.8067 67.7773 26.84 67.7373 26.88C67.6973 26.9067 67.6573 26.9333 67.6173 26.96C67.4707 27.1067 67.404 27.2267 67.4173 27.32C67.4307 27.4133 67.4707 27.4933 67.5373 27.56C67.604 27.6267 67.644 27.7067 67.6573 27.8C67.6707 27.8933 67.604 28.0133 67.4573 28.16C67.444 28.2 67.4307 28.24 67.4173 28.28C67.4173 28.3333 67.404 28.3733 67.3773 28.4C67.364 28.4133 67.3373 28.38 67.2973 28.3C67.284 28.2333 67.2707 28.16 67.2573 28.08C67.244 28 67.2307 27.92 67.2173 27.84C67.204 27.6133 67.1973 27.48 67.1973 27.44C67.2107 27.4133 67.184 27.3267 67.1173 27.18L67.0373 27.26C66.9973 27.3 66.9573 27.3333 66.9173 27.36C66.8907 27.3867 66.8573 27.4267 66.8173 27.48C66.764 27.56 66.7107 27.64 66.6573 27.72C66.604 27.8 66.5507 27.88 66.4973 27.96C66.484 27.9733 66.464 28.0067 66.4373 28.06C66.4107 28.1133 66.384 28.1467 66.3573 28.16C66.2907 28.1867 66.2373 28.1533 66.1973 28.06C66.1573 27.9667 66.124 27.9067 66.0973 27.88C66.084 27.84 66.0707 27.8 66.0573 27.76C66.0573 27.72 66.044 27.68 66.0173 27.64C65.9907 27.6267 65.9507 27.5933 65.8973 27.54C65.8707 27.5133 65.8507 27.4867 65.8373 27.46L65.6373 27.22L65.5373 27.12C65.5107 27.1333 65.4773 27.1267 65.4373 27.1C65.3973 27.0733 65.364 27.0533 65.3373 27.04C65.2707 27.1067 65.2373 27.1467 65.2373 27.16C65.1307 27.2533 65.0373 27.36 64.9573 27.48C64.8907 27.6133 64.824 27.7467 64.7573 27.88C64.744 27.9067 64.7173 27.94 64.6773 27.98C64.6507 28.02 64.6173 28.0533 64.5773 28.08C64.5507 28.1067 64.5307 28.12 64.5173 28.12C64.504 28.2 64.4907 28.28 64.4773 28.36C64.4773 28.4533 64.464 28.54 64.4373 28.62C64.424 28.6333 64.404 28.6267 64.3773 28.6C64.364 28.5867 64.3573 28.5733 64.3573 28.56C64.3307 28.4533 64.3173 28.3733 64.3173 28.32C64.3307 28.28 64.3107 28.18 64.2573 28.02C64.244 28.02 64.2307 28.0133 64.2173 28C64.2173 27.9867 64.204 27.9667 64.1773 27.94C64.1773 27.9133 64.164 27.8933 64.1373 27.88C64.124 27.8667 64.1173 27.86 64.1173 27.86L63.9373 27.56L63.6973 27.18C63.684 27.1267 63.664 27.0733 63.6373 27.02C63.6107 26.98 63.584 26.94 63.5573 26.9L63.5373 26.88C63.484 26.84 63.4307 26.7733 63.3773 26.68C63.3773 26.6667 63.3707 26.66 63.3573 26.66C63.3573 26.6467 63.3573 26.6333 63.3573 26.62C63.344 26.5533 63.3373 26.48 63.3373 26.4C63.3373 26.3067 63.3373 26.1933 63.3373 26.06V25.9C63.3107 25.9267 63.2907 25.9533 63.2773 25.98L63.2173 26.04C63.0973 26.1867 62.964 26.32 62.8173 26.44C62.764 26.5733 62.724 26.7133 62.6973 26.86C62.6707 26.9933 62.624 27.1267 62.5573 27.26C62.544 27.3133 62.5173 27.3667 62.4773 27.42C62.4507 27.4867 62.4107 27.54 62.3573 27.58C62.344 27.5933 62.304 27.6067 62.2373 27.62C62.184 27.6333 62.1507 27.6333 62.1373 27.62C62.124 27.58 62.1173 27.5333 62.1173 27.48C62.1173 27.44 62.1173 27.4 62.1173 27.36C62.104 27.4 62.084 27.4333 62.0573 27.46C62.044 27.5 62.024 27.5333 61.9973 27.56C61.984 27.5867 61.964 27.6067 61.9373 27.62C61.9107 27.6467 61.884 27.6733 61.8573 27.7C61.8173 27.9133 61.784 28.1133 61.7573 28.3C61.744 28.5 61.724 28.7067 61.6973 28.92C61.684 28.9733 61.6707 29.0267 61.6573 29.08C61.644 29.1467 61.624 29.2133 61.5973 29.28C61.5973 29.3467 61.5773 29.4 61.5373 29.44C61.524 29.4533 61.4973 29.44 61.4573 29.4C61.444 29.3733 61.4307 29.34 61.4173 29.3C61.404 29.2733 61.3907 29.2467 61.3773 29.22C61.364 29.1533 61.3373 29.04 61.2973 28.88C61.2573 28.7333 61.224 28.6333 61.1973 28.58C61.184 28.5267 61.1707 28.4667 61.1573 28.4C61.144 28.3467 61.1307 28.2933 61.1173 28.24C61.104 28.2 61.0907 28.1533 61.0773 28.1C61.0773 28.06 61.064 28.0133 61.0373 27.96L60.9773 27.9C60.9373 27.8467 60.8973 27.7867 60.8573 27.72C60.8173 27.6667 60.7773 27.6133 60.7373 27.56C60.724 27.52 60.704 27.48 60.6773 27.44C60.6507 27.4133 60.624 27.3733 60.5973 27.32C60.584 27.2933 60.5707 27.2667 60.5573 27.24C60.544 27.2267 60.524 27.2133 60.4973 27.2H60.3373C59.4707 27.1733 58.724 26.9667 58.0973 26.58C57.484 26.1933 57.0573 25.7 56.8173 25.1C56.804 25.06 56.7907 25.02 56.7773 24.98C56.764 24.94 56.7507 24.9 56.7373 24.86C56.7373 24.8467 56.7307 24.8333 56.7173 24.82C56.7173 24.8067 56.7173 24.7933 56.7173 24.78C56.704 24.7133 56.6907 24.6533 56.6773 24.6C56.664 24.5333 56.6507 24.4733 56.6373 24.42C56.624 24.34 56.6173 24.26 56.6173 24.18C56.6173 24.0867 56.6173 24 56.6173 23.92C56.6173 23.8667 56.6173 23.82 56.6173 23.78C56.6307 23.74 56.6373 23.6933 56.6373 23.64L56.6573 23.5C56.6973 23.2867 56.7573 23.0933 56.8373 22.92C57.024 22.4933 57.3107 22.1267 57.6973 21.82C57.7773 21.7533 57.8573 21.6933 57.9373 21.64C58.0173 21.5867 58.104 21.5333 58.1973 21.48L58.4573 21.34C58.484 21.3133 58.5173 21.2867 58.5573 21.26C58.5973 21.2333 58.6373 21.2133 58.6773 21.2C58.704 21.1733 58.7373 21.1533 58.7773 21.14C58.8173 21.1267 58.8573 21.1133 58.8973 21.1C59.044 21.0333 59.1907 20.98 59.3373 20.94C59.4973 20.9 59.6573 20.86 59.8173 20.82C60.004 20.7667 60.1907 20.72 60.3773 20.68C60.5773 20.64 60.784 20.6 60.9973 20.56L61.4773 20.48C61.664 20.4533 61.844 20.4267 62.0173 20.4C62.204 20.36 62.3907 20.3267 62.5773 20.3C62.6307 20.3 62.664 20.2933 62.6773 20.28L63.1173 20.2V19.88C63.1173 19.9333 63.1107 19.92 63.0973 19.84C63.0973 19.76 63.0973 19.7133 63.0973 19.7C63.0973 19.7133 63.0907 19.7 63.0773 19.66C63.0773 19.6067 63.0773 19.5867 63.0773 19.6C63.0773 19.5867 63.0707 19.5733 63.0573 19.56C63.0573 19.5467 63.0573 19.5333 63.0573 19.52C63.0307 19.44 62.9773 19.36 62.8973 19.28C62.884 19.28 62.8773 19.28 62.8773 19.28C62.8773 19.2667 62.864 19.26 62.8373 19.26C62.8107 19.2733 62.7773 19.3 62.7373 19.34C62.7107 19.38 62.6907 19.4133 62.6773 19.44C62.6373 19.5067 62.5907 19.5933 62.5373 19.7C62.484 19.7933 62.4173 19.86 62.3373 19.9C62.244 19.9533 62.1573 19.92 62.0773 19.8C61.9973 19.68 61.9307 19.5933 61.8773 19.54C61.8507 19.5133 61.8307 19.5 61.8173 19.5L61.6373 19.68C61.5973 19.7067 61.5573 19.7333 61.5173 19.76C61.4773 19.7867 61.4373 19.8133 61.3973 19.84C61.3173 19.88 61.2307 19.9133 61.1373 19.94C61.0573 19.9533 60.9773 19.9733 60.8973 20C60.7373 20.0533 60.5773 20.1133 60.4173 20.18C60.2707 20.2333 60.1173 20.2733 59.9573 20.3C59.7573 20.3267 59.5707 20.2867 59.3973 20.18C59.224 20.06 59.0373 20.0067 58.8373 20.02C58.6507 20.02 58.464 20.0133 58.2773 20C58.104 19.9867 57.924 19.9533 57.7373 19.9C57.684 19.8733 57.6507 19.86 57.6373 19.86C57.624 19.86 57.6107 19.8667 57.5973 19.88C57.584 19.8933 57.5707 19.8933 57.5573 19.88C57.544 19.8667 57.5307 19.8533 57.5173 19.84C57.5173 19.8267 57.504 19.8133 57.4773 19.8C57.464 19.7733 57.444 19.7467 57.4173 19.72C57.3907 19.6933 57.3773 19.68 57.3773 19.68C57.364 19.6667 57.344 19.6333 57.3173 19.58C57.2907 19.5 57.284 19.42 57.2973 19.34C57.3107 19.2467 57.3307 19.16 57.3573 19.08C57.3707 19.04 57.384 19 57.3973 18.96C57.4107 18.92 57.424 18.8733 57.4373 18.82C57.5707 18.5667 57.7173 18.3467 57.8773 18.16C58.024 17.9733 58.1973 17.7933 58.3973 17.62C58.6107 17.4467 58.8507 17.2933 59.1173 17.16C59.224 17.0667 59.3507 16.9867 59.4973 16.92C59.6307 16.8533 59.7707 16.8 59.9173 16.76C60.0773 16.72 60.2373 16.6867 60.3973 16.66C60.704 16.58 61.0373 16.52 61.3973 16.48C61.7573 16.4267 62.1507 16.4 62.5773 16.4H62.9773C63.0573 16.4 63.1307 16.4 63.1973 16.4C63.264 16.4 63.3173 16.4067 63.3573 16.42L63.4973 16.44H63.5973C63.7707 16.44 63.8973 16.46 63.9773 16.5C64.204 16.5133 64.4307 16.5533 64.6573 16.62C64.8173 16.6467 64.9707 16.68 65.1173 16.72C65.2773 16.76 65.4173 16.8133 65.5373 16.88C65.7107 16.9333 65.8773 17.0133 66.0373 17.12C66.2107 17.2267 66.364 17.3333 66.4973 17.44C66.4973 17.4533 66.4973 17.46 66.4973 17.46C66.5107 17.46 66.5173 17.46 66.5173 17.46C66.5573 17.4867 66.5907 17.52 66.6173 17.56C66.6573 17.5867 66.6907 17.6133 66.7173 17.64C67.3573 18.2133 67.7373 18.98 67.8573 19.94C67.8707 19.9533 67.8773 19.9733 67.8773 20C67.9173 20.28 67.9307 20.56 67.9173 20.84C67.9173 21.12 67.9173 21.4 67.9173 21.68V25.82C67.9173 25.8867 67.9173 25.96 67.9173 26.04C67.9307 26.12 67.9373 26.2 67.9373 26.28ZM63.1773 22.94V22.7C63.1773 22.6867 63.164 22.6867 63.1373 22.7C63.124 22.7 63.104 22.7067 63.0773 22.72C63.064 22.72 63.0507 22.72 63.0373 22.72C62.984 22.7467 62.924 22.7733 62.8573 22.8C62.7907 22.8133 62.724 22.8333 62.6573 22.86C62.524 22.9133 62.384 22.9533 62.2373 22.98C62.104 22.9933 61.964 23.0133 61.8173 23.04C61.7507 23.0533 61.6773 23.0733 61.5973 23.1C61.5173 23.1267 61.444 23.16 61.3773 23.2C61.324 23.24 61.284 23.28 61.2573 23.32C61.164 23.44 61.1173 23.56 61.1173 23.68C61.1173 23.7733 61.164 23.8933 61.2573 24.04C61.284 24.0533 61.3107 24.0733 61.3373 24.1C61.3773 24.1133 61.4173 24.1333 61.4573 24.16L61.5573 24.2C61.7307 24.2133 61.824 24.2267 61.8373 24.24C61.8507 24.24 61.9307 24.2333 62.0773 24.22C62.6507 24.14 62.9973 23.8133 63.1173 23.24C63.144 23.16 63.1573 23.0867 63.1573 23.02C63.1573 22.98 63.164 22.9533 63.1773 22.94ZM80.4988 19.1C80.4988 19.18 80.4988 19.2667 80.4988 19.36C80.5121 19.44 80.5121 19.52 80.4988 19.6C80.4988 19.6667 80.4921 19.7133 80.4788 19.74C80.4654 19.7533 80.4588 19.7667 80.4588 19.78C80.4588 19.7933 80.4521 19.8067 80.4388 19.82C80.4654 19.7933 80.4521 19.8067 80.3988 19.86C80.3588 19.9133 80.3454 19.9333 80.3588 19.92C80.3454 19.9333 80.3321 19.9467 80.3188 19.96C80.3054 19.9733 80.2921 19.9867 80.2788 20C80.2788 20 80.2721 20.0067 80.2588 20.02C80.2588 20.02 80.2521 20.02 80.2387 20.02C80.2387 20.02 80.2321 20.0267 80.2188 20.04C80.2188 20.04 80.2121 20.04 80.1988 20.04C80.1854 20.0667 80.1721 20.1 80.1588 20.14C80.1588 20.18 80.1454 20.2133 80.1188 20.24C80.0921 20.32 80.0654 20.3867 80.0388 20.44C80.0254 20.4667 80.0121 20.5133 79.9988 20.58C79.9988 20.6333 79.9854 20.6467 79.9588 20.62C79.9321 20.5933 79.9188 20.5333 79.9188 20.44C79.9054 20.4533 79.8921 20.4667 79.8788 20.48C79.8654 20.4933 79.8521 20.5067 79.8388 20.52C79.8121 20.5467 79.7988 20.56 79.7988 20.56C79.7854 20.5733 79.7721 20.5867 79.7588 20.6C79.7454 20.6 79.7321 20.6067 79.7188 20.62C79.7054 20.7933 79.6921 20.9667 79.6788 21.14C79.6788 21.3133 79.6654 21.4867 79.6388 21.66C79.6388 21.7533 79.6388 21.8933 79.6388 22.08C79.6388 22.2667 79.6321 22.42 79.6188 22.54C79.6188 22.66 79.5988 22.6733 79.5588 22.58C79.4921 22.3533 79.4654 22.12 79.4788 21.88C79.5054 21.6267 79.5054 21.3867 79.4788 21.16C79.4788 21.1333 79.4721 21.1333 79.4588 21.16C79.4454 21.1867 79.4321 21.2 79.4188 21.2C79.4054 21.2133 79.3921 21.22 79.3788 21.22C79.3654 21.2067 79.3521 21.2 79.3388 21.2C79.3254 21.1867 79.3054 21.16 79.2788 21.12C79.2654 21.08 79.2588 21.0733 79.2588 21.1C79.2321 21.3667 79.2254 21.64 79.2388 21.92C79.2654 22.2 79.2454 22.4733 79.1788 22.74C79.1521 22.8333 79.1321 22.82 79.1188 22.7C79.1188 22.5667 79.1188 22.4067 79.1188 22.22C79.1188 22.02 79.1121 21.8667 79.0988 21.76C79.0854 21.5467 79.0788 21.4 79.0788 21.32C79.0788 21.24 79.0721 21.16 79.0588 21.08C79.0588 21 79.0321 20.86 78.9788 20.66C78.9788 20.66 78.9721 20.6667 78.9588 20.68C78.9588 20.68 78.9521 20.68 78.9388 20.68L78.8788 20.74C78.8654 20.9533 78.8521 21.1667 78.8388 21.38C78.8388 21.5933 78.8254 21.8067 78.7988 22.02C78.7988 22.0333 78.7854 22.0533 78.7588 22.08C78.7321 22.1067 78.7121 22.1133 78.6988 22.1C78.6054 21.9 78.5721 21.72 78.5988 21.56C78.6254 21.4 78.6521 21.2467 78.6788 21.1C78.7054 20.94 78.6521 20.76 78.5188 20.56L78.3988 20.34C78.3721 20.4733 78.3588 20.6067 78.3588 20.74C78.3588 20.86 78.3454 20.9867 78.3188 21.12C78.3054 21.1467 78.2921 21.1333 78.2788 21.08C78.2654 21.0133 78.2521 20.9667 78.2388 20.94C78.2254 20.9 78.1988 20.86 78.1588 20.82C78.1321 20.78 78.1054 20.74 78.0788 20.7C78.0254 20.62 77.9254 20.54 77.7788 20.46C77.6321 20.3667 77.4988 20.2733 77.3788 20.18C77.2721 19.9667 77.2188 19.86 77.2188 19.86C77.2188 19.86 77.2321 19.9133 77.2588 20.02C77.2988 20.1133 77.3121 20.1933 77.2988 20.26C77.3121 20.34 77.3121 20.42 77.2988 20.5C77.2988 20.58 77.2988 20.6667 77.2988 20.76V26.38C77.2988 26.42 77.2988 26.4667 77.2988 26.52C77.2988 26.56 77.2921 26.6 77.2788 26.64L77.2188 26.76L77.1588 26.82C77.1454 26.8333 77.1321 26.8467 77.1188 26.86C77.1188 26.8733 77.1054 26.8867 77.0788 26.9C77.0788 26.9 77.0721 26.9067 77.0588 26.92C77.0588 26.92 77.0521 26.92 77.0388 26.92C77.0388 26.92 77.0321 26.9267 77.0188 26.94C77.0188 26.94 77.0121 26.94 76.9988 26.94C76.9854 26.98 76.9388 27.0467 76.8588 27.14L76.8388 27.16C76.8254 27.1733 76.7988 27.2133 76.7588 27.28C76.7321 27.36 76.6921 27.4333 76.6388 27.5C76.6121 27.5533 76.5788 27.6133 76.5388 27.68C76.5121 27.7467 76.4854 27.8133 76.4588 27.88L76.2788 28.26C76.2654 28.2867 76.2521 28.3133 76.2388 28.34C76.2254 28.3667 76.2054 28.3933 76.1788 28.42C76.0854 28.62 75.9721 28.8333 75.8388 29.06C75.7588 29.1667 75.6988 29.2267 75.6588 29.24C75.6454 29.3467 75.6521 29.4867 75.6788 29.66C75.7054 29.8333 75.7188 29.98 75.7188 30.1C75.7321 30.2333 75.6788 30.2867 75.5588 30.26C75.4521 30.2333 75.3988 30.1533 75.3988 30.02C75.3988 29.9 75.4121 29.76 75.4388 29.6C75.4788 29.4533 75.4921 29.32 75.4788 29.2C75.4654 29.1867 75.4588 29.1733 75.4588 29.16C75.4454 29.16 75.4321 29.1533 75.4188 29.14L75.3188 28.98C75.3188 28.98 75.3188 28.9733 75.3188 28.96C75.3188 28.96 75.3121 28.96 75.2988 28.96C75.2988 28.9467 75.2921 28.9333 75.2788 28.92C75.2788 28.92 75.2788 28.9133 75.2788 28.9C75.2521 28.8467 75.2388 28.8133 75.2388 28.8C75.1854 28.6533 75.1254 28.5133 75.0588 28.38C75.0054 28.2467 74.9388 28.12 74.8588 28C74.8454 27.9867 74.8321 27.9733 74.8188 27.96C74.8054 27.9467 74.7921 27.9333 74.7788 27.92C74.7388 27.8933 74.6988 27.88 74.6588 27.88C74.6188 27.88 74.5788 27.8867 74.5388 27.9C74.4988 27.94 74.4454 27.96 74.3788 27.96C74.2854 27.96 74.1921 27.9267 74.0988 27.86C74.0054 27.8067 73.9254 27.7467 73.8588 27.68L73.6988 27.52C73.6321 27.4267 73.5654 27.3267 73.4988 27.22C73.4454 27.1267 73.3654 27.0533 73.2588 27C73.2454 27.12 73.2588 27.2667 73.2988 27.44C73.3521 27.6267 73.3254 27.7133 73.2188 27.7C73.1121 27.6867 73.0721 27.5933 73.0988 27.42C73.1388 27.26 73.1321 27.1133 73.0788 26.98L72.9588 26.92C72.7988 26.8 72.7188 26.64 72.7188 26.44C72.7054 26.2933 72.6988 26.1467 72.6988 26C72.7121 25.8533 72.7188 25.72 72.7188 25.6V20.42L72.6388 20.1C72.6388 20.1133 72.6121 20.1867 72.5588 20.32C72.5054 20.44 72.4788 20.5 72.4788 20.5C72.4254 20.6733 72.3654 20.8533 72.2988 21.04C72.2321 21.2133 72.1654 21.3933 72.0988 21.58C72.0454 21.7 71.9921 21.8 71.9388 21.88C71.9254 21.9067 71.9054 21.94 71.8788 21.98C71.8654 22.02 71.8587 22.0333 71.8587 22.02C71.8321 21.7667 71.8188 21.5133 71.8188 21.26C71.8188 21.0067 71.8054 20.7533 71.7788 20.5C71.7788 20.5133 71.7454 20.52 71.6788 20.52C71.6521 20.5733 71.6254 20.6267 71.5988 20.68C71.5721 20.7333 71.5388 20.7867 71.4988 20.84C71.4454 20.96 71.3588 21.0533 71.2388 21.12C71.2388 21.1333 71.2054 21.1867 71.1388 21.28C71.0854 21.36 71.0588 21.4 71.0588 21.4C71.0054 21.4267 70.9788 21.4 70.9788 21.32C70.9388 21.2267 70.9188 21.18 70.9188 21.18C70.9321 21.1667 70.9388 21.1533 70.9388 21.14C70.9388 21.1267 70.8988 21.0733 70.8188 20.98L70.4588 20.62C70.4188 20.58 70.3788 20.54 70.3388 20.5C70.2988 20.4467 70.2321 20.3933 70.1388 20.34C70.1121 20.3133 70.0854 20.3 70.0588 20.3C70.0321 20.3667 70.0188 20.4533 70.0188 20.56C70.0321 20.6533 70.0121 20.7333 69.9588 20.8C69.9454 20.8267 69.9321 20.8 69.9188 20.72C69.9188 20.64 69.9054 20.5733 69.8787 20.52L69.8188 20.26C69.8054 20.2333 69.7921 20.2 69.7788 20.16C69.7788 20.12 69.7721 20.08 69.7588 20.04C69.6521 19.96 69.5788 19.8533 69.5388 19.72C69.5254 19.6933 69.5188 19.6533 69.5188 19.6C69.5054 19.4933 69.4988 19.3933 69.4988 19.3C69.5121 19.2067 69.5188 19.1133 69.5188 19.02V17.14C69.5188 16.94 69.6054 16.7867 69.7788 16.68C69.7921 16.6667 69.8054 16.66 69.8188 16.66C69.8454 16.6333 69.8721 16.62 69.8988 16.62C69.9388 16.62 69.9721 16.6133 69.9988 16.6H79.3187C79.3854 16.6 79.4521 16.6 79.5188 16.6C79.5854 16.5867 79.6521 16.58 79.7188 16.58C79.7988 16.58 79.8788 16.5867 79.9588 16.6C80.0388 16.6 80.1121 16.6133 80.1788 16.64C80.2321 16.6667 80.2654 16.6867 80.2788 16.7C80.3588 16.74 80.4188 16.82 80.4588 16.94C80.4854 16.9933 80.4988 17.0467 80.4988 17.1C80.5121 17.1533 80.5187 17.2067 80.5187 17.26C80.5187 17.3133 80.5187 17.3667 80.5187 17.42C80.5054 17.7 80.4988 17.98 80.4988 18.26C80.4988 18.54 80.4988 18.82 80.4988 19.1ZM89.3408 29.74C89.3274 29.8067 89.3208 29.9133 89.3208 30.06C89.3208 30.2067 89.3008 30.2467 89.2608 30.18C89.2074 30.0733 89.1941 29.9467 89.2208 29.8C89.2608 29.6667 89.2474 29.5467 89.1808 29.44C89.1541 29.3867 89.1408 29.4133 89.1408 29.52C89.1408 29.64 89.1408 29.7533 89.1408 29.86C89.1408 29.9667 89.1274 30 89.1008 29.96C89.0474 29.8267 89.0274 29.6867 89.0408 29.54C89.0674 29.4067 89.0674 29.2733 89.0408 29.14C88.9741 29.0867 88.9074 29.0267 88.8408 28.96C88.7874 28.8933 88.7408 28.8333 88.7008 28.78C88.6474 28.7133 88.6008 28.6467 88.5608 28.58C88.5208 28.5267 88.4808 28.4733 88.4408 28.42C88.3341 28.3133 88.2341 28.18 88.1408 28.02L87.9008 27.6C87.9008 27.5867 87.8808 27.54 87.8408 27.46C87.8008 27.3933 87.7674 27.3467 87.7408 27.32C87.7141 27.2933 87.6874 27.2733 87.6608 27.26C87.6074 27.26 87.5808 27.28 87.5808 27.32C87.5674 27.4533 87.5608 27.58 87.5608 27.7C87.5608 27.8333 87.5474 27.9667 87.5208 28.1C87.5208 28.1267 87.5141 28.1067 87.5008 28.04C87.4874 27.9733 87.4808 27.92 87.4808 27.88C87.4674 27.7733 87.4541 27.66 87.4408 27.54C87.4408 27.42 87.4341 27.3067 87.4208 27.2H87.3008C86.5008 27.1733 85.7741 27.06 85.1208 26.86C84.4674 26.66 83.9074 26.3533 83.4408 25.94L83.3208 25.84L83.1808 25.7C82.8341 25.3267 82.5474 24.8867 82.3208 24.38C82.1074 23.8733 81.9674 23.2733 81.9008 22.58C81.8874 22.58 81.8808 22.5667 81.8808 22.54C81.8674 22.5133 81.8608 22.4467 81.8608 22.34C81.8608 22.3267 81.8608 22.3133 81.8608 22.3C81.8741 22.2867 81.8808 22.2733 81.8808 22.26C81.8674 22.1933 81.8608 22.1267 81.8608 22.06C81.8608 21.98 81.8608 21.9 81.8608 21.82V21.68C81.8741 20.88 82.0008 20.1667 82.2408 19.54C82.4808 18.9133 82.8141 18.38 83.2408 17.94C83.2674 17.9267 83.2808 17.9133 83.2808 17.9C83.2941 17.8867 83.3074 17.8733 83.3208 17.86C83.3341 17.8467 83.3608 17.8267 83.4008 17.8C83.4408 17.76 83.4608 17.74 83.4608 17.74C83.5008 17.7 83.5341 17.6733 83.5608 17.66C84.5474 16.82 85.8808 16.4 87.5608 16.4H87.9808C88.0341 16.4 88.0674 16.4067 88.0808 16.42C88.2008 16.42 88.2874 16.4267 88.3408 16.44C88.5274 16.4267 88.6674 16.44 88.7608 16.48C88.8274 16.4933 88.8941 16.5067 88.9608 16.52C89.0274 16.52 89.0941 16.5333 89.1608 16.56C89.8541 16.6933 90.4541 16.9267 90.9608 17.26C91.4674 17.58 91.8874 17.9667 92.2208 18.42C92.2874 18.4733 92.3408 18.54 92.3808 18.62C92.4208 18.7 92.4608 18.7733 92.5008 18.84L92.6608 19.12C92.6741 19.16 92.6874 19.2 92.7008 19.24C92.7274 19.2667 92.7474 19.3 92.7608 19.34C92.7874 19.38 92.8074 19.42 92.8208 19.46C92.8341 19.5 92.8474 19.54 92.8608 19.58C92.9274 19.7667 92.9874 19.96 93.0408 20.16C93.1074 20.36 93.1541 20.56 93.1808 20.76C93.1808 20.8133 93.1874 20.8533 93.2008 20.88C93.2274 20.9867 93.2408 21.0933 93.2408 21.2C93.2408 21.3067 93.2474 21.4133 93.2608 21.52V22.44C93.2608 22.6267 93.1808 22.78 93.0208 22.9C92.9808 22.9267 92.9341 22.9667 92.8808 23.02C92.8541 23.0867 92.8274 23.12 92.8008 23.12C92.8008 23.12 92.7741 23.0933 92.7208 23.04C92.6941 23.04 92.6541 23.0467 92.6008 23.06C92.5474 23.0733 92.5074 23.0867 92.4808 23.1C92.4274 23.1133 92.3808 23.1267 92.3408 23.14C92.3008 23.14 92.2541 23.14 92.2008 23.14C92.0941 23.1533 91.9941 23.18 91.9008 23.22C91.8074 23.26 91.7074 23.2933 91.6008 23.32C91.5208 23.3333 91.4341 23.34 91.3408 23.34C91.2474 23.34 91.1541 23.34 91.0608 23.34C90.9408 23.3533 90.8274 23.38 90.7208 23.42C90.6274 23.46 90.5274 23.4733 90.4208 23.46C90.3408 23.4467 90.2608 23.4333 90.1808 23.42C90.1008 23.3933 90.0141 23.3733 89.9208 23.36C89.8674 23.3733 89.8141 23.3867 89.7608 23.4C89.7208 23.4133 89.6741 23.4267 89.6208 23.44C89.5808 23.4533 89.5408 23.46 89.5008 23.46C89.4608 23.46 89.4208 23.4733 89.3808 23.5C89.3408 23.5267 89.2808 23.58 89.2008 23.66H91.9408C91.9941 23.66 92.0474 23.66 92.1008 23.66C92.1674 23.6467 92.2341 23.64 92.3008 23.64H92.4008C92.4808 23.64 92.5741 23.6533 92.6808 23.68C92.7074 23.68 92.7274 23.6867 92.7408 23.7C92.7541 23.7 92.7674 23.7 92.7808 23.7C92.8741 23.74 92.9408 23.8133 92.9808 23.92C93.0074 24 93.0141 24.0667 93.0008 24.12C93.0008 24.2133 92.9808 24.32 92.9408 24.44L92.8808 24.6C92.8008 24.8133 92.6941 24.9933 92.5608 25.14C92.5074 25.2067 92.4541 25.2733 92.4008 25.34C92.3474 25.4067 92.2874 25.4733 92.2208 25.54C92.1674 25.5933 92.1141 25.6467 92.0608 25.7C92.0074 25.7533 91.9474 25.8067 91.8808 25.86L91.7608 25.98C91.6941 26.0467 91.6341 26.1267 91.5808 26.22C91.5408 26.3 91.4941 26.38 91.4408 26.46C91.4008 26.5 91.3741 26.5333 91.3608 26.56C91.3874 26.5333 91.3874 26.5467 91.3608 26.6C91.3341 26.6533 91.3074 26.6667 91.2808 26.64C91.2541 26.7067 91.2208 26.7667 91.1808 26.82C91.1541 26.8733 91.1141 26.9533 91.0608 27.06C91.0341 27.1267 91.0008 27.1867 90.9608 27.24C90.9341 27.3067 90.9074 27.3733 90.8808 27.44C90.8008 27.5867 90.7274 27.7067 90.6608 27.8C90.6474 27.84 90.6274 27.8733 90.6008 27.9C90.5874 27.94 90.5674 27.9733 90.5408 28L90.4608 28.12C90.4474 28.1333 90.4341 28.1533 90.4208 28.18C90.4074 28.2067 90.3874 28.2333 90.3608 28.26C90.2808 28.3533 90.2008 28.44 90.1208 28.52C90.0408 28.6133 89.9608 28.7067 89.8808 28.8L89.7408 28.94C89.7141 28.98 89.6808 29.02 89.6408 29.06C89.6141 29.1 89.5808 29.1333 89.5408 29.16C89.4874 29.2133 89.4474 29.24 89.4208 29.24C89.4074 29.32 89.3941 29.4 89.3808 29.48C89.3808 29.5733 89.3674 29.66 89.3408 29.74ZM86.8408 20.48H86.9408C87.1141 20.48 87.2874 20.48 87.4608 20.48C87.6341 20.4667 87.8074 20.4667 87.9808 20.48L88.3608 20.46V20.22C88.3474 20.2067 88.3408 20.1933 88.3408 20.18C88.3408 20.1267 88.3341 20.0667 88.3208 20C88.3208 19.9333 88.3141 19.8733 88.3008 19.82L88.1808 19.54C88.1674 19.5267 88.1608 19.52 88.1608 19.52C88.1608 19.5067 88.1541 19.4933 88.1408 19.48C88.0741 19.3867 88.0008 19.3267 87.9208 19.3C87.9208 19.2867 87.9008 19.28 87.8608 19.28H87.8408C87.7474 19.28 87.6541 19.2867 87.5608 19.3C87.4674 19.3 87.3741 19.3067 87.2808 19.32C87.2541 19.3333 87.2141 19.3467 87.1608 19.36C87.1208 19.36 87.0808 19.3733 87.0408 19.4C87.0274 19.4133 87.0208 19.4267 87.0208 19.44C87.0208 19.44 87.0141 19.4467 87.0008 19.46C86.9741 19.4867 86.9541 19.52 86.9408 19.56C86.9274 19.6 86.9074 19.6333 86.8808 19.66C86.8008 19.8733 86.7608 20.0267 86.7608 20.12C86.7741 20.2133 86.8008 20.3333 86.8408 20.48ZM87.3808 24.28C87.4074 24.2933 87.4874 24.3 87.6208 24.3C87.7008 24.2733 87.7741 24.2333 87.8408 24.18C87.9208 24.1267 87.9874 24.0733 88.0408 24.02L88.2208 23.84C88.3274 23.76 88.4074 23.7133 88.4608 23.7C88.5141 23.6867 88.5741 23.6733 88.6408 23.66C88.5474 23.6333 88.4541 23.6067 88.3608 23.58C88.2808 23.5533 88.1941 23.5267 88.1008 23.5C87.9541 23.4467 87.8074 23.3867 87.6608 23.32C87.5274 23.2533 87.3874 23.1933 87.2408 23.14L86.8408 23.02C86.8141 22.9933 86.7874 22.98 86.7608 22.98V23.08C86.7608 23.0933 86.7608 23.1533 86.7608 23.26C86.7741 23.3533 86.7808 23.4133 86.7808 23.44C86.7941 23.5867 86.8274 23.7333 86.8808 23.88C86.9474 24.0133 87.0341 24.12 87.1408 24.2L87.3008 24.26C87.3141 24.2733 87.3408 24.28 87.3808 24.28ZM107.262 26.62C107.248 26.7133 107.215 26.7867 107.162 26.84C107.108 26.8933 107.068 26.9267 107.042 26.94C107.015 26.98 106.988 27.04 106.962 27.12L106.722 27.66C106.708 27.6867 106.695 27.7333 106.682 27.8C106.668 27.8667 106.655 27.8867 106.642 27.86C106.602 27.7667 106.588 27.6933 106.602 27.64C106.615 27.6 106.602 27.5267 106.562 27.42C106.428 27.58 106.315 27.7533 106.222 27.94C106.128 28.1267 106.028 28.3133 105.922 28.5C105.842 28.66 105.755 28.8133 105.662 28.96C105.568 29.1067 105.475 29.2533 105.382 29.4C105.355 29.4267 105.328 29.4667 105.302 29.52C105.248 29.6133 105.162 29.72 105.042 29.84C104.922 29.9733 104.795 29.9867 104.662 29.88C104.528 29.7733 104.428 29.6333 104.362 29.46C104.295 29.2867 104.235 29.1267 104.182 28.98C104.128 28.8333 104.075 28.6867 104.022 28.54C103.982 28.3933 103.928 28.2533 103.862 28.12C103.848 28.0933 103.835 28.0667 103.822 28.04C103.822 28.0133 103.808 27.9933 103.782 27.98C103.768 27.9667 103.755 27.9533 103.742 27.94C103.728 27.9267 103.715 27.9133 103.702 27.9C103.688 27.7933 103.682 27.68 103.682 27.56C103.682 27.4533 103.675 27.3467 103.662 27.24C103.608 27.24 103.562 27.26 103.522 27.3C103.468 27.3533 103.415 27.4067 103.362 27.46C103.308 27.5267 103.242 27.56 103.162 27.56C103.068 27.5733 102.982 27.5533 102.902 27.5C102.822 27.4467 102.748 27.3933 102.682 27.34C102.548 27.2333 102.408 27.1133 102.262 26.98C102.222 26.94 102.182 26.9 102.142 26.86C102.102 26.82 102.062 26.7733 102.022 26.72C101.995 26.68 101.968 26.64 101.942 26.6C101.915 26.56 101.888 26.52 101.862 26.48C101.822 26.4133 101.782 26.3533 101.742 26.3C101.715 26.2333 101.688 26.1733 101.662 26.12L101.202 25.36C101.135 25.2533 101.062 25.14 100.982 25.02C100.915 24.9 100.848 24.78 100.782 24.66L100.602 24.38C100.548 24.3 100.502 24.2267 100.462 24.16C100.422 24.08 100.375 24 100.322 23.92C100.322 23.9067 100.315 23.9 100.302 23.9C100.302 23.8867 100.302 23.88 100.302 23.88C100.302 23.8667 100.295 23.86 100.282 23.86C100.282 23.86 100.282 23.8533 100.282 23.84C100.282 23.8533 100.262 23.82 100.222 23.74V23.72C100.208 23.72 100.202 23.72 100.202 23.72C100.202 23.7067 100.202 23.7 100.202 23.7L100.022 23.5C99.9951 23.7933 99.9817 24.1133 99.9817 24.46C99.9817 24.8067 99.9684 25.1333 99.9417 25.44C99.9417 25.5067 99.9417 25.5733 99.9417 25.64C99.9551 25.7067 99.9684 25.7733 99.9817 25.84C99.9951 25.92 100.002 26.0067 100.002 26.1C100.002 26.1933 99.9817 26.2733 99.9417 26.34C99.9284 26.3533 99.9084 26.3733 99.8817 26.4C99.8684 26.4267 99.8484 26.4333 99.8217 26.42H99.8017C99.7751 26.3933 99.7617 26.3533 99.7617 26.3C99.7617 26.3533 99.7617 26.4133 99.7617 26.48C99.7617 26.5333 99.7484 26.5867 99.7217 26.64C99.7217 26.6533 99.7084 26.6733 99.6817 26.7C99.6817 26.7267 99.6684 26.7533 99.6417 26.78C99.6017 26.8333 99.5551 26.88 99.5017 26.92C99.4617 26.9467 99.4217 26.98 99.3817 27.02C99.3817 27.0333 99.3684 27.0533 99.3417 27.08C99.3417 27.12 99.3217 27.16 99.2817 27.2C99.2551 27.2533 99.2217 27.3 99.1817 27.34C99.1417 27.38 99.1017 27.4267 99.0617 27.48C99.0084 27.5333 98.9617 27.6 98.9217 27.68C98.8817 27.76 98.8417 27.84 98.8017 27.92C98.7751 28.0133 98.7351 28.1067 98.6817 28.2C98.6551 28.2533 98.6217 28.3 98.5817 28.34C98.5551 28.3933 98.5217 28.44 98.4817 28.48C98.4551 28.5067 98.4284 28.5267 98.4017 28.54C98.3884 28.5667 98.3751 28.5933 98.3617 28.62C98.3617 28.66 98.3484 28.6933 98.3217 28.72C98.2551 28.8267 98.2084 28.8333 98.1817 28.74C98.1551 28.6467 98.1284 28.58 98.1017 28.54C98.0351 28.4867 97.9817 28.4267 97.9417 28.36C97.8617 28.24 97.7951 28.1 97.7417 27.94C97.6884 27.7933 97.6417 27.6467 97.6017 27.5C97.6017 27.4733 97.5951 27.4533 97.5817 27.44C97.5817 27.4267 97.5817 27.4133 97.5817 27.4L97.5217 27.26V27.12C97.5084 27.1467 97.5017 27.18 97.5017 27.22C97.5017 27.2733 97.4884 27.3067 97.4617 27.32C97.4351 27.3333 97.4217 27.32 97.4217 27.28C97.4217 27.2533 97.4084 27.24 97.3817 27.24C97.3417 27.36 97.2884 27.48 97.2217 27.6C97.1684 27.72 97.0884 27.8133 96.9817 27.88C96.8217 28.08 96.7617 28.2667 96.8017 28.44C96.8417 28.6267 96.8884 28.8133 96.9417 29C96.9951 29.1867 96.9551 29.38 96.8217 29.58C96.8084 29.6467 96.7951 29.7133 96.7817 29.78C96.7684 29.8467 96.7484 29.9133 96.7217 29.98C96.7084 29.9933 96.6884 30 96.6617 30C96.6484 30 96.6417 29.9933 96.6417 29.98C96.6151 29.7 96.6017 29.4133 96.6017 29.12C96.6151 28.84 96.6017 28.5533 96.5617 28.26C96.5617 28.1933 96.5551 28.2267 96.5417 28.36C96.5417 28.4933 96.5351 28.6267 96.5217 28.76C96.5217 28.8933 96.5084 28.9333 96.4817 28.88C96.4284 28.72 96.4084 28.5467 96.4217 28.36C96.4484 28.1867 96.4484 28.0133 96.4217 27.84C96.4084 27.84 96.3884 27.8333 96.3617 27.82C96.3484 27.8067 96.3484 27.8 96.3617 27.8C96.3217 27.7733 96.2817 27.7333 96.2417 27.68C96.2151 27.64 96.1884 27.6 96.1617 27.56C96.1217 27.4933 96.0817 27.4267 96.0417 27.36C96.0151 27.2933 95.9684 27.2333 95.9017 27.18C95.9017 27.2467 95.8884 27.2867 95.8617 27.3C95.8351 27.3133 95.8151 27.2933 95.8017 27.24C95.8017 27.2 95.7951 27.1733 95.7817 27.16L95.7217 27.06C95.7217 27.0733 95.7151 27.08 95.7017 27.08C95.7017 27.0933 95.7017 27.1067 95.7017 27.12C95.6617 27.32 95.6484 27.42 95.6617 27.42C95.6751 27.4333 95.6551 27.2933 95.6017 27C95.5884 27 95.5751 27 95.5617 27C95.5617 26.9867 95.5484 26.98 95.5217 26.98C95.4151 26.94 95.3284 26.8733 95.2617 26.78C95.2351 26.7533 95.2084 26.7 95.1817 26.62C95.1551 26.5267 95.1417 26.42 95.1417 26.3C95.1551 26.18 95.1617 26.0733 95.1617 25.98V17.54C95.1617 17.4733 95.1551 17.4067 95.1417 17.34C95.1417 17.26 95.1484 17.1867 95.1617 17.12C95.1617 17.0667 95.1751 17 95.2017 16.92C95.2284 16.8667 95.2484 16.8333 95.2617 16.82C95.2884 16.7933 95.3084 16.7733 95.3217 16.76C95.4017 16.6533 95.5151 16.6 95.6617 16.6C95.7684 16.5867 95.8751 16.5867 95.9817 16.6C96.0884 16.6 96.1884 16.6 96.2817 16.6H99.2017C99.3217 16.6 99.4284 16.6333 99.5217 16.7L99.6417 16.82C99.6551 16.8333 99.6751 16.8667 99.7017 16.92C99.7284 17 99.7417 17.0667 99.7417 17.12V20H100.182L100.382 19.64C100.408 19.6 100.428 19.5667 100.442 19.54C100.468 19.5 100.488 19.4667 100.502 19.44L100.842 18.84C100.948 18.64 101.055 18.44 101.162 18.24C101.282 18.04 101.395 17.84 101.502 17.64C101.528 17.5867 101.568 17.5067 101.622 17.4C101.688 17.2933 101.748 17.2 101.802 17.12C101.828 17.08 101.848 17.04 101.862 17C101.888 16.96 101.915 16.9267 101.942 16.9C101.968 16.8333 102.022 16.7733 102.102 16.72C102.182 16.6533 102.288 16.6133 102.422 16.6C102.555 16.5733 102.688 16.5667 102.822 16.58C102.968 16.5933 103.102 16.6 103.222 16.6H105.602C105.708 16.6 105.822 16.5933 105.942 16.58C106.075 16.5667 106.202 16.5733 106.322 16.6C106.455 16.6 106.568 16.6467 106.662 16.74C106.755 16.8333 106.802 16.9467 106.802 17.08C106.802 17.1333 106.795 17.18 106.782 17.22C106.768 17.26 106.748 17.3 106.722 17.34L106.562 17.62C106.508 17.7 106.455 17.7867 106.402 17.88C106.362 17.96 106.315 18.0467 106.262 18.14C106.262 18.1533 106.255 18.16 106.242 18.16C106.242 18.16 106.242 18.1667 106.242 18.18L105.502 19.42C105.462 19.4733 105.435 19.5267 105.422 19.58C105.328 19.7667 105.235 19.9533 105.142 20.14C105.048 20.3133 104.942 20.4667 104.822 20.6C104.795 20.6533 104.762 20.7067 104.722 20.76C104.695 20.8 104.662 20.8467 104.622 20.9C104.555 21.0333 104.482 21.16 104.402 21.28L104.242 21.54C104.242 20.9533 104.242 20.5533 104.242 20.34C104.242 20.1133 104.235 20.0133 104.222 20.04C104.222 20.0667 104.222 20.1667 104.222 20.34C104.222 20.5133 104.215 20.7067 104.202 20.92C104.202 21.1333 104.202 21.3267 104.202 21.5C104.202 21.66 104.202 21.74 104.202 21.74L104.342 21.94L104.522 22.24C104.575 22.2933 104.608 22.34 104.622 22.38L105.042 22.94C105.188 23.1267 105.322 23.3267 105.442 23.54C105.575 23.7533 105.702 23.9667 105.822 24.18L106.722 25.52C106.762 25.5867 106.802 25.6533 106.842 25.72C106.895 25.7867 106.942 25.8533 106.982 25.92C107.008 25.9467 107.048 26.0067 107.102 26.1C107.168 26.18 107.215 26.2533 107.242 26.32C107.255 26.3333 107.262 26.3467 107.262 26.36C107.262 26.3733 107.268 26.3933 107.282 26.42C107.295 26.4733 107.288 26.54 107.262 26.62ZM99.7417 25.78C99.7417 25.8467 99.7417 25.92 99.7417 26C99.7551 26.08 99.7617 26.1533 99.7617 26.22C99.7617 26.18 99.7617 26.14 99.7617 26.1C99.7751 26.0467 99.7817 25.9933 99.7817 25.94C99.7951 25.8733 99.8017 25.8133 99.8017 25.76C99.8017 25.7067 99.8017 25.66 99.8017 25.62L99.7417 23.72V25.78ZM119.742 26.28C119.742 26.3333 119.735 26.3733 119.722 26.4C119.722 26.5733 119.689 26.7 119.622 26.78C119.609 26.8067 119.582 26.84 119.542 26.88C119.502 26.9067 119.462 26.9333 119.422 26.96C119.275 27.1067 119.209 27.2267 119.222 27.32C119.235 27.4133 119.275 27.4933 119.342 27.56C119.409 27.6267 119.449 27.7067 119.462 27.8C119.475 27.8933 119.409 28.0133 119.262 28.16C119.249 28.2 119.235 28.24 119.222 28.28C119.222 28.3333 119.209 28.3733 119.182 28.4C119.169 28.4133 119.142 28.38 119.102 28.3C119.089 28.2333 119.075 28.16 119.062 28.08C119.049 28 119.035 27.92 119.022 27.84C119.009 27.6133 119.002 27.48 119.002 27.44C119.015 27.4133 118.989 27.3267 118.922 27.18L118.842 27.26C118.802 27.3 118.762 27.3333 118.722 27.36C118.695 27.3867 118.662 27.4267 118.622 27.48C118.569 27.56 118.515 27.64 118.462 27.72C118.409 27.8 118.355 27.88 118.302 27.96C118.289 27.9733 118.269 28.0067 118.242 28.06C118.215 28.1133 118.189 28.1467 118.162 28.16C118.095 28.1867 118.042 28.1533 118.002 28.06C117.962 27.9667 117.929 27.9067 117.902 27.88C117.889 27.84 117.875 27.8 117.862 27.76C117.862 27.72 117.849 27.68 117.822 27.64C117.795 27.6267 117.755 27.5933 117.702 27.54C117.675 27.5133 117.655 27.4867 117.642 27.46L117.442 27.22L117.342 27.12C117.315 27.1333 117.282 27.1267 117.242 27.1C117.202 27.0733 117.169 27.0533 117.142 27.04C117.075 27.1067 117.042 27.1467 117.042 27.16C116.935 27.2533 116.842 27.36 116.762 27.48C116.695 27.6133 116.629 27.7467 116.562 27.88C116.549 27.9067 116.522 27.94 116.482 27.98C116.455 28.02 116.422 28.0533 116.382 28.08C116.355 28.1067 116.335 28.12 116.322 28.12C116.309 28.2 116.295 28.28 116.282 28.36C116.282 28.4533 116.269 28.54 116.242 28.62C116.229 28.6333 116.209 28.6267 116.182 28.6C116.169 28.5867 116.162 28.5733 116.162 28.56C116.135 28.4533 116.122 28.3733 116.122 28.32C116.135 28.28 116.115 28.18 116.062 28.02C116.049 28.02 116.035 28.0133 116.022 28C116.022 27.9867 116.009 27.9667 115.982 27.94C115.982 27.9133 115.969 27.8933 115.942 27.88C115.929 27.8667 115.922 27.86 115.922 27.86L115.742 27.56L115.502 27.18C115.489 27.1267 115.469 27.0733 115.442 27.02C115.415 26.98 115.389 26.94 115.362 26.9L115.342 26.88C115.289 26.84 115.235 26.7733 115.182 26.68C115.182 26.6667 115.175 26.66 115.162 26.66C115.162 26.6467 115.162 26.6333 115.162 26.62C115.149 26.5533 115.142 26.48 115.142 26.4C115.142 26.3067 115.142 26.1933 115.142 26.06V25.9C115.115 25.9267 115.095 25.9533 115.082 25.98L115.022 26.04C114.902 26.1867 114.769 26.32 114.622 26.44C114.569 26.5733 114.529 26.7133 114.502 26.86C114.475 26.9933 114.429 27.1267 114.362 27.26C114.349 27.3133 114.322 27.3667 114.282 27.42C114.255 27.4867 114.215 27.54 114.162 27.58C114.149 27.5933 114.109 27.6067 114.042 27.62C113.989 27.6333 113.955 27.6333 113.942 27.62C113.929 27.58 113.922 27.5333 113.922 27.48C113.922 27.44 113.922 27.4 113.922 27.36C113.909 27.4 113.889 27.4333 113.862 27.46C113.849 27.5 113.829 27.5333 113.802 27.56C113.789 27.5867 113.769 27.6067 113.742 27.62C113.715 27.6467 113.689 27.6733 113.662 27.7C113.622 27.9133 113.589 28.1133 113.562 28.3C113.549 28.5 113.529 28.7067 113.502 28.92C113.489 28.9733 113.475 29.0267 113.462 29.08C113.449 29.1467 113.429 29.2133 113.402 29.28C113.402 29.3467 113.382 29.4 113.342 29.44C113.329 29.4533 113.302 29.44 113.262 29.4C113.249 29.3733 113.235 29.34 113.222 29.3C113.209 29.2733 113.195 29.2467 113.182 29.22C113.169 29.1533 113.142 29.04 113.102 28.88C113.062 28.7333 113.029 28.6333 113.002 28.58C112.989 28.5267 112.975 28.4667 112.962 28.4C112.949 28.3467 112.935 28.2933 112.922 28.24C112.909 28.2 112.895 28.1533 112.882 28.1C112.882 28.06 112.869 28.0133 112.842 27.96L112.782 27.9C112.742 27.8467 112.702 27.7867 112.662 27.72C112.622 27.6667 112.582 27.6133 112.542 27.56C112.529 27.52 112.509 27.48 112.482 27.44C112.455 27.4133 112.429 27.3733 112.402 27.32C112.389 27.2933 112.375 27.2667 112.362 27.24C112.349 27.2267 112.329 27.2133 112.302 27.2H112.142C111.275 27.1733 110.529 26.9667 109.902 26.58C109.289 26.1933 108.862 25.7 108.622 25.1C108.609 25.06 108.595 25.02 108.582 24.98C108.569 24.94 108.555 24.9 108.542 24.86C108.542 24.8467 108.535 24.8333 108.522 24.82C108.522 24.8067 108.522 24.7933 108.522 24.78C108.509 24.7133 108.495 24.6533 108.482 24.6C108.469 24.5333 108.455 24.4733 108.442 24.42C108.429 24.34 108.422 24.26 108.422 24.18C108.422 24.0867 108.422 24 108.422 23.92C108.422 23.8667 108.422 23.82 108.422 23.78C108.435 23.74 108.442 23.6933 108.442 23.64L108.462 23.5C108.502 23.2867 108.562 23.0933 108.642 22.92C108.829 22.4933 109.115 22.1267 109.502 21.82C109.582 21.7533 109.662 21.6933 109.742 21.64C109.822 21.5867 109.909 21.5333 110.002 21.48L110.262 21.34C110.289 21.3133 110.322 21.2867 110.362 21.26C110.402 21.2333 110.442 21.2133 110.482 21.2C110.509 21.1733 110.542 21.1533 110.582 21.14C110.622 21.1267 110.662 21.1133 110.702 21.1C110.849 21.0333 110.995 20.98 111.142 20.94C111.302 20.9 111.462 20.86 111.622 20.82C111.809 20.7667 111.995 20.72 112.182 20.68C112.382 20.64 112.589 20.6 112.802 20.56L113.282 20.48C113.469 20.4533 113.649 20.4267 113.822 20.4C114.009 20.36 114.195 20.3267 114.382 20.3C114.435 20.3 114.469 20.2933 114.482 20.28L114.922 20.2V19.88C114.922 19.9333 114.915 19.92 114.902 19.84C114.902 19.76 114.902 19.7133 114.902 19.7C114.902 19.7133 114.895 19.7 114.882 19.66C114.882 19.6067 114.882 19.5867 114.882 19.6C114.882 19.5867 114.875 19.5733 114.862 19.56C114.862 19.5467 114.862 19.5333 114.862 19.52C114.835 19.44 114.782 19.36 114.702 19.28C114.689 19.28 114.682 19.28 114.682 19.28C114.682 19.2667 114.669 19.26 114.642 19.26C114.615 19.2733 114.582 19.3 114.542 19.34C114.515 19.38 114.495 19.4133 114.482 19.44C114.442 19.5067 114.395 19.5933 114.342 19.7C114.289 19.7933 114.222 19.86 114.142 19.9C114.049 19.9533 113.962 19.92 113.882 19.8C113.802 19.68 113.735 19.5933 113.682 19.54C113.655 19.5133 113.635 19.5 113.622 19.5L113.442 19.68C113.402 19.7067 113.362 19.7333 113.322 19.76C113.282 19.7867 113.242 19.8133 113.202 19.84C113.122 19.88 113.035 19.9133 112.942 19.94C112.862 19.9533 112.782 19.9733 112.702 20C112.542 20.0533 112.382 20.1133 112.222 20.18C112.075 20.2333 111.922 20.2733 111.762 20.3C111.562 20.3267 111.375 20.2867 111.202 20.18C111.029 20.06 110.842 20.0067 110.642 20.02C110.455 20.02 110.269 20.0133 110.082 20C109.909 19.9867 109.729 19.9533 109.542 19.9C109.489 19.8733 109.455 19.86 109.442 19.86C109.429 19.86 109.415 19.8667 109.402 19.88C109.389 19.8933 109.375 19.8933 109.362 19.88C109.349 19.8667 109.335 19.8533 109.322 19.84C109.322 19.8267 109.309 19.8133 109.282 19.8C109.269 19.7733 109.249 19.7467 109.222 19.72C109.195 19.6933 109.182 19.68 109.182 19.68C109.169 19.6667 109.149 19.6333 109.122 19.58C109.095 19.5 109.089 19.42 109.102 19.34C109.115 19.2467 109.135 19.16 109.162 19.08C109.175 19.04 109.189 19 109.202 18.96C109.215 18.92 109.229 18.8733 109.242 18.82C109.375 18.5667 109.522 18.3467 109.682 18.16C109.829 17.9733 110.002 17.7933 110.202 17.62C110.415 17.4467 110.655 17.2933 110.922 17.16C111.029 17.0667 111.155 16.9867 111.302 16.92C111.435 16.8533 111.575 16.8 111.722 16.76C111.882 16.72 112.042 16.6867 112.202 16.66C112.509 16.58 112.842 16.52 113.202 16.48C113.562 16.4267 113.955 16.4 114.382 16.4H114.782C114.862 16.4 114.935 16.4 115.002 16.4C115.069 16.4 115.122 16.4067 115.162 16.42L115.302 16.44H115.402C115.575 16.44 115.702 16.46 115.782 16.5C116.009 16.5133 116.235 16.5533 116.462 16.62C116.622 16.6467 116.775 16.68 116.922 16.72C117.082 16.76 117.222 16.8133 117.342 16.88C117.515 16.9333 117.682 17.0133 117.842 17.12C118.015 17.2267 118.169 17.3333 118.302 17.44C118.302 17.4533 118.302 17.46 118.302 17.46C118.315 17.46 118.322 17.46 118.322 17.46C118.362 17.4867 118.395 17.52 118.422 17.56C118.462 17.5867 118.495 17.6133 118.522 17.64C119.162 18.2133 119.542 18.98 119.662 19.94C119.675 19.9533 119.682 19.9733 119.682 20C119.722 20.28 119.735 20.56 119.722 20.84C119.722 21.12 119.722 21.4 119.722 21.68V25.82C119.722 25.8867 119.722 25.96 119.722 26.04C119.735 26.12 119.742 26.2 119.742 26.28ZM114.982 22.94V22.7C114.982 22.6867 114.969 22.6867 114.942 22.7C114.929 22.7 114.909 22.7067 114.882 22.72C114.869 22.72 114.855 22.72 114.842 22.72C114.789 22.7467 114.729 22.7733 114.662 22.8C114.595 22.8133 114.529 22.8333 114.462 22.86C114.329 22.9133 114.189 22.9533 114.042 22.98C113.909 22.9933 113.769 23.0133 113.622 23.04C113.555 23.0533 113.482 23.0733 113.402 23.1C113.322 23.1267 113.249 23.16 113.182 23.2C113.129 23.24 113.089 23.28 113.062 23.32C112.969 23.44 112.922 23.56 112.922 23.68C112.922 23.7733 112.969 23.8933 113.062 24.04C113.089 24.0533 113.115 24.0733 113.142 24.1C113.182 24.1133 113.222 24.1333 113.262 24.16L113.362 24.2C113.535 24.2133 113.629 24.2267 113.642 24.24C113.655 24.24 113.735 24.2333 113.882 24.22C114.455 24.14 114.802 23.8133 114.922 23.24C114.949 23.16 114.962 23.0867 114.962 23.02C114.962 22.98 114.969 22.9533 114.982 22.94Z" fill="#C6C6C6"/>
<defs>
<radialGradient id="paint0_radial_43_483" cx="0" cy="0" r="1" gradientUnits="userSpaceOnUse" gradientTransform="translate(60.5 20.5) rotate(90) scale(20.5 17.1382)">
<stop offset="0.16794" stop-color="#C6C6C6" stop-opacity="0.5"/>
<stop offset="0.585561" stop-color="#C6C6C6" stop-opacity="0.5"/>
<stop offset="0.843727" stop-color="#C6C6C6" stop-opacity="0.5"/>
</radialGradient>
</defs>
</svg>
