<svg width="37" height="41" viewBox="0 0 37 41" fill="none" xmlns="http://www.w3.org/2000/svg">
<rect width="37" height="41" fill="#FFCD00"/>
<path fill-rule="evenodd" clip-rule="evenodd" d="M17.1113 31.0002C16.9973 31.0002 16.8823 30.9802 16.7693 30.9392C16.3373 30.7822 16.0673 30.3502 16.1173 29.8932L16.8853 22.8002H11.0003C10.6313 22.8002 10.2923 22.5972 10.1183 22.2712C9.9443 21.9452 9.9643 21.5512 10.1693 21.2442L18.0573 9.44418C18.3133 9.06118 18.7973 8.90218 19.2303 9.06118C19.6633 9.21818 19.9323 9.65018 19.8823 10.1072L19.1143 17.2002H25.0003C25.3693 17.2002 25.7083 17.4032 25.8823 17.7292C26.0553 18.0552 26.0363 18.4492 25.8313 18.7562L17.9423 30.5562C17.7533 30.8402 17.4373 31.0002 17.1113 31.0002Z" fill="black"/>
<mask id="mask0_202_602" style="mask-type:alpha" maskUnits="userSpaceOnUse" x="10" y="9" width="16" height="22">
<path fill-rule="evenodd" clip-rule="evenodd" d="M17.1113 31.0002C16.9973 31.0002 16.8823 30.9802 16.7693 30.9392C16.3373 30.7822 16.0673 30.3502 16.1173 29.8932L16.8853 22.8002H11.0003C10.6313 22.8002 10.2923 22.5972 10.1183 22.2712C9.9443 21.9452 9.9643 21.5512 10.1693 21.2442L18.0573 9.44418C18.3133 9.06118 18.7973 8.90218 19.2303 9.06118C19.6633 9.21818 19.9323 9.65018 19.8823 10.1072L19.1143 17.2002H25.0003C25.3693 17.2002 25.7083 17.4032 25.8823 17.7292C26.0553 18.0552 26.0363 18.4492 25.8313 18.7562L17.9423 30.5562C17.7533 30.8402 17.4373 31.0002 17.1113 31.0002Z" fill="white"/>
</mask>
<g mask="url(#mask0_202_602)">
<rect x="6" y="8" width="24" height="24" fill="white"/>
</g>
</svg>
