<svg width="23" height="23" viewBox="0 0 23 23" fill="none" xmlns="http://www.w3.org/2000/svg">
<path fill-rule="evenodd" clip-rule="evenodd" d="M13.4167 6.70833C13.4167 5.65129 12.5571 4.79167 11.5 4.79167C10.443 4.79167 9.58335 5.65129 9.58335 6.70833C9.58335 7.76538 10.443 8.625 11.5 8.625C12.5571 8.625 13.4167 7.76538 13.4167 6.70833ZM15.3334 6.70833C15.3334 8.82242 13.6141 10.5417 11.5 10.5417C9.38594 10.5417 7.66669 8.82242 7.66669 6.70833C7.66669 4.59425 9.38594 2.875 11.5 2.875C13.6141 2.875 15.3334 4.59425 15.3334 6.70833ZM4.79169 19.1667C4.79169 15.4675 7.80181 12.4583 11.5 12.4583C15.1982 12.4583 18.2084 15.4675 18.2084 19.1667C18.2084 19.6957 17.78 20.125 17.25 20.125C16.7201 20.125 16.2917 19.6957 16.2917 19.1667C16.2917 16.5245 14.1421 14.375 11.5 14.375C8.8579 14.375 6.70835 16.5245 6.70835 19.1667C6.70835 19.6957 6.27998 20.125 5.75002 20.125C5.22006 20.125 4.79169 19.6957 4.79169 19.1667Z" fill="black"/>
<mask id="mask0_1_84" style="mask-type:alpha" maskUnits="userSpaceOnUse" x="4" y="2" width="15" height="19">
<path fill-rule="evenodd" clip-rule="evenodd" d="M13.4167 6.70833C13.4167 5.65129 12.5571 4.79167 11.5 4.79167C10.443 4.79167 9.58335 5.65129 9.58335 6.70833C9.58335 7.76538 10.443 8.625 11.5 8.625C12.5571 8.625 13.4167 7.76538 13.4167 6.70833ZM15.3334 6.70833C15.3334 8.82242 13.6141 10.5417 11.5 10.5417C9.38594 10.5417 7.66669 8.82242 7.66669 6.70833C7.66669 4.59425 9.38594 2.875 11.5 2.875C13.6141 2.875 15.3334 4.59425 15.3334 6.70833ZM4.79169 19.1667C4.79169 15.4675 7.80181 12.4583 11.5 12.4583C15.1982 12.4583 18.2084 15.4675 18.2084 19.1667C18.2084 19.6957 17.78 20.125 17.25 20.125C16.7201 20.125 16.2917 19.6957 16.2917 19.1667C16.2917 16.5245 14.1421 14.375 11.5 14.375C8.8579 14.375 6.70835 16.5245 6.70835 19.1667C6.70835 19.6957 6.27998 20.125 5.75002 20.125C5.22006 20.125 4.79169 19.6957 4.79169 19.1667Z" fill="white"/>
</mask>
<g mask="url(#mask0_1_84)">
<rect width="23" height="23" fill="#FF6D00"/>
</g>
</svg>
