<svg width="12" height="12" viewBox="0 0 12 12" fill="none" xmlns="http://www.w3.org/2000/svg">
<path fill-rule="evenodd" clip-rule="evenodd" d="M3.30004 2C2.58304 2 2.00004 2.583 2.00004 3.3C2.00004 6.994 5.00554 10 8.70004 10C9.41654 10 10 9.417 10 8.7C10 8.6445 9.99654 8.59 9.98954 8.536L7.67954 8.006C7.63354 8.094 7.58304 8.1895 7.53704 8.2785C7.30904 8.7135 7.14404 9.0295 6.72304 8.86C5.07004 8.28 3.72054 6.93 3.13304 5.257C2.95454 4.8645 3.29454 4.6865 3.72554 4.4615C3.81304 4.4155 3.90754 4.366 3.99404 4.321L3.46404 2.0105C3.40854 2.0035 3.35454 2 3.30004 2ZM8.70004 11C4.45404 11 1.00004 7.546 1.00004 3.3C1.00004 2.0315 2.03154 1 3.30004 1C3.43004 1 3.55854 1.011 3.68304 1.0325C3.80454 1.052 3.92654 1.083 4.04554 1.124C4.20804 1.1805 4.33054 1.317 4.36904 1.485L5.05354 4.467C5.09154 4.631 5.04404 4.803 4.92704 4.925C4.85904 4.996 4.85754 4.9975 4.23754 5.322C4.73954 6.409 5.61204 7.2785 6.67704 7.7635C7.00204 7.143 7.00404 7.141 7.07504 7.073C7.19704 6.956 7.37004 6.9105 7.53304 6.9465L10.5155 7.631C10.683 7.6695 10.8195 7.7915 10.8755 7.954C10.9165 8.072 10.9475 8.194 10.968 8.3195C10.989 8.443 11 8.571 11 8.7C11 9.9685 9.96804 11 8.70004 11Z" fill="black"/>
<mask id="mask0_1_59" style="mask-type:alpha" maskUnits="userSpaceOnUse" x="1" y="1" width="10" height="10">
<path fill-rule="evenodd" clip-rule="evenodd" d="M3.30004 2C2.58304 2 2.00004 2.583 2.00004 3.3C2.00004 6.994 5.00554 10 8.70004 10C9.41654 10 10 9.417 10 8.7C10 8.6445 9.99654 8.59 9.98954 8.536L7.67954 8.006C7.63354 8.094 7.58304 8.1895 7.53704 8.2785C7.30904 8.7135 7.14404 9.0295 6.72304 8.86C5.07004 8.28 3.72054 6.93 3.13304 5.257C2.95454 4.8645 3.29454 4.6865 3.72554 4.4615C3.81304 4.4155 3.90754 4.366 3.99404 4.321L3.46404 2.0105C3.40854 2.0035 3.35454 2 3.30004 2ZM8.70004 11C4.45404 11 1.00004 7.546 1.00004 3.3C1.00004 2.0315 2.03154 1 3.30004 1C3.43004 1 3.55854 1.011 3.68304 1.0325C3.80454 1.052 3.92654 1.083 4.04554 1.124C4.20804 1.1805 4.33054 1.317 4.36904 1.485L5.05354 4.467C5.09154 4.631 5.04404 4.803 4.92704 4.925C4.85904 4.996 4.85754 4.9975 4.23754 5.322C4.73954 6.409 5.61204 7.2785 6.67704 7.7635C7.00204 7.143 7.00404 7.141 7.07504 7.073C7.19704 6.956 7.37004 6.9105 7.53304 6.9465L10.5155 7.631C10.683 7.6695 10.8195 7.7915 10.8755 7.954C10.9165 8.072 10.9475 8.194 10.968 8.3195C10.989 8.443 11 8.571 11 8.7C11 9.9685 9.96804 11 8.70004 11Z" fill="white"/>
</mask>
<g mask="url(#mask0_1_59)">
<rect width="12" height="12" fill="#FF6D00"/>
</g>
</svg>
