<svg width="17" height="24" viewBox="0 0 17 24" fill="none" xmlns="http://www.w3.org/2000/svg">
<path d="M8.4 0C3.756 0 0 3.756 0 8.4C0 14.7 8.4 24 8.4 24C8.4 24 16.8 14.7 16.8 8.4C16.8 3.756 13.044 0 8.4 0ZM8.4 11.4C7.60435 11.4 6.84129 11.0839 6.27868 10.5213C5.71607 9.95871 5.4 9.19565 5.4 8.4C5.4 7.60435 5.71607 6.84129 6.27868 6.27868C6.84129 5.71607 7.60435 5.4 8.4 5.4C9.19565 5.4 9.95871 5.71607 10.5213 6.27868C11.0839 6.84129 11.4 7.60435 11.4 8.4C11.4 9.19565 11.0839 9.95871 10.5213 10.5213C9.95871 11.0839 9.19565 11.4 8.4 11.4Z" fill="#FF6D00"/>
</svg>
