<svg width="12" height="12" viewBox="0 0 12 12" fill="none" xmlns="http://www.w3.org/2000/svg">
<path fill-rule="evenodd" clip-rule="evenodd" d="M11.6155 10.2293L7.38477 5.97485L11.6393 1.7441C12.0314 1.35416 12.0325 0.721304 11.6432 0.32989C11.254 -0.061524 10.6211 -0.0640022 10.229 0.325932L5.97452 4.55668L1.74377 0.302185C1.35454 -0.0892286 0.721687 -0.0917068 0.329565 0.298227C-0.0625583 0.688161 -0.0636223 1.32102 0.325607 1.71244L4.55636 5.96693L0.30186 10.1977C-0.0902629 10.5876 -0.0913269 11.2205 0.297902 11.6119C0.687131 12.0033 1.31999 12.0058 1.71211 11.6158L5.96661 7.3851L10.1974 11.6396C10.5866 12.031 11.2194 12.0335 11.6116 11.6436C12.0037 11.2536 12.0048 10.6208 11.6155 10.2293" fill="#FFFFFF"/>
</svg>
