<svg width="46" height="46" viewBox="0 0 46 46" fill="none" xmlns="http://www.w3.org/2000/svg">
<circle cx="23" cy="23" r="23" fill="#FF6D00"/>
<path fill-rule="evenodd" clip-rule="evenodd" d="M27.3828 26H19.7648L18.1278 20H30.3828L27.3828 26ZM32.0828 18.948C31.7158 18.354 31.0798 18 30.3818 18H17.5818L16.9648 15.737C16.8458 15.302 16.4508 15 15.9998 15H13.9998C13.4468 15 12.9998 15.448 12.9998 16C12.9998 16.552 13.4468 17 13.9998 17H15.2358L18.0348 27.263C18.1538 27.698 18.5488 28 18.9998 28H27.9998C28.3788 28 28.7248 27.786 28.8948 27.447L32.1708 20.894C32.4838 20.269 32.4498 19.542 32.0828 18.948ZM18.5 30C17.672 30 17 30.671 17 31.5C17 32.329 17.672 33 18.5 33C19.328 33 20 32.329 20 31.5C20 30.671 19.328 30 18.5 30ZM27 31.5C27 30.671 27.672 30 28.5 30C29.328 30 30 30.671 30 31.5C30 32.329 29.328 33 28.5 33C27.672 33 27 32.329 27 31.5Z" fill="black"/>
<mask id="mask0_35_538" style="mask-type:alpha" maskUnits="userSpaceOnUse" x="12" y="15" width="21" height="18">
<path fill-rule="evenodd" clip-rule="evenodd" d="M27.3828 26H19.7648L18.1278 20H30.3828L27.3828 26ZM32.0828 18.948C31.7158 18.354 31.0798 18 30.3818 18H17.5818L16.9648 15.737C16.8458 15.302 16.4508 15 15.9998 15H13.9998C13.4468 15 12.9998 15.448 12.9998 16C12.9998 16.552 13.4468 17 13.9998 17H15.2358L18.0348 27.263C18.1538 27.698 18.5488 28 18.9998 28H27.9998C28.3788 28 28.7248 27.786 28.8948 27.447L32.1708 20.894C32.4838 20.269 32.4498 19.542 32.0828 18.948ZM18.5 30C17.672 30 17 30.671 17 31.5C17 32.329 17.672 33 18.5 33C19.328 33 20 32.329 20 31.5C20 30.671 19.328 30 18.5 30ZM27 31.5C27 30.671 27.672 30 28.5 30C29.328 30 30 30.671 30 31.5C30 32.329 29.328 33 28.5 33C27.672 33 27 32.329 27 31.5Z" fill="white"/>
</mask>
<g mask="url(#mask0_35_538)">
<rect x="11" y="12" width="24" height="24" fill="white"/>
</g>
</svg>
