<svg width="46" height="46" viewBox="0 0 46 46" fill="none" xmlns="http://www.w3.org/2000/svg">
<path fill-rule="evenodd" clip-rule="evenodd" d="M23 21.5001C22.173 21.5001 21.5 22.1731 21.5 23.0001C21.5 23.8271 22.173 24.5001 23 24.5001C23.827 24.5001 24.5 23.8271 24.5 23.0001C24.5 22.1731 23.827 21.5001 23 21.5001ZM23 26.5001C21.07 26.5001 19.5 24.9301 19.5 23.0001C19.5 21.0701 21.07 19.5001 23 19.5001C24.93 19.5001 26.5 21.0701 26.5 23.0001C26.5 24.9301 24.93 26.5001 23 26.5001ZM32.868 22.5021C32.229 21.3901 28.706 15.8161 22.729 16.0031C17.202 16.1441 13.986 21.0141 13.132 22.5021C12.956 22.8111 12.956 23.1891 13.132 23.4981C13.762 24.5951 17.162 30.0001 23.025 30.0001C23.106 30.0001 23.188 29.9991 23.271 29.9971C28.798 29.8561 32.014 24.9861 32.868 23.4981C33.044 23.1891 33.044 22.8111 32.868 22.5021Z" fill="black"/>
<mask id="mask0_35_565" style="mask-type:alpha" maskUnits="userSpaceOnUse" x="13" y="15" width="20" height="15">
<path fill-rule="evenodd" clip-rule="evenodd" d="M23 21.5001C22.173 21.5001 21.5 22.1731 21.5 23.0001C21.5 23.8271 22.173 24.5001 23 24.5001C23.827 24.5001 24.5 23.8271 24.5 23.0001C24.5 22.1731 23.827 21.5001 23 21.5001ZM23 26.5001C21.07 26.5001 19.5 24.9301 19.5 23.0001C19.5 21.0701 21.07 19.5001 23 19.5001C24.93 19.5001 26.5 21.0701 26.5 23.0001C26.5 24.9301 24.93 26.5001 23 26.5001ZM32.868 22.5021C32.229 21.3901 28.706 15.8161 22.729 16.0031C17.202 16.1441 13.986 21.0141 13.132 22.5021C12.956 22.8111 12.956 23.1891 13.132 23.4981C13.762 24.5951 17.162 30.0001 23.025 30.0001C23.106 30.0001 23.188 29.9991 23.271 29.9971C28.798 29.8561 32.014 24.9861 32.868 23.4981C33.044 23.1891 33.044 22.8111 32.868 22.5021Z" fill="white"/>
</mask>
<g mask="url(#mask0_35_565)">
<rect x="11" y="11" width="24" height="24" fill="#C6C6C6"/>
</g>
<circle cx="23" cy="23" r="22.5" stroke="#C6C6C6"/>
</svg>
