<svg width="37" height="41" viewBox="0 0 37 41" fill="none" xmlns="http://www.w3.org/2000/svg">
<rect width="37" height="41" fill="#FF6D00"/>
<path fill-rule="evenodd" clip-rule="evenodd" d="M26.7397 13.2605C26.3927 12.9125 25.8297 12.9125 25.4827 13.2605L11.2607 27.4825C11.0867 27.6565 10.9997 27.8835 10.9997 28.1115C10.9997 28.3385 11.0867 28.5665 11.2607 28.7395C11.6077 29.0865 12.1697 29.0865 12.5177 28.7395L26.7397 14.5175C27.0867 14.1695 27.0867 13.6075 26.7397 13.2605ZM23 27.9998C22.173 27.9998 21.5 27.3268 21.5 26.4998C21.5 25.6728 22.173 24.9998 23 24.9998C23.827 24.9998 24.5 25.6728 24.5 26.4998C24.5 27.3268 23.827 27.9998 23 27.9998ZM23 22.9998C21.07 22.9998 19.5 24.5698 19.5 26.4998C19.5 28.4298 21.07 29.9998 23 29.9998C24.93 29.9998 26.5 28.4298 26.5 26.4998C26.5 24.5698 24.93 22.9998 23 22.9998ZM15 14.9998C15.827 14.9998 16.5 15.6728 16.5 16.4998C16.5 17.3268 15.827 17.9998 15 17.9998C14.173 17.9998 13.5 17.3268 13.5 16.4998C13.5 15.6728 14.173 14.9998 15 14.9998ZM15 19.9998C16.93 19.9998 18.5 18.4298 18.5 16.4998C18.5 14.5698 16.93 12.9998 15 12.9998C13.07 12.9998 11.5 14.5698 11.5 16.4998C11.5 18.4298 13.07 19.9998 15 19.9998Z" fill="black"/>
<mask id="mask0_35_614" style="mask-type:alpha" maskUnits="userSpaceOnUse" x="10" y="12" width="17" height="18">
<path fill-rule="evenodd" clip-rule="evenodd" d="M26.7397 13.2605C26.3927 12.9125 25.8297 12.9125 25.4827 13.2605L11.2607 27.4825C11.0867 27.6565 10.9997 27.8835 10.9997 28.1115C10.9997 28.3385 11.0867 28.5665 11.2607 28.7395C11.6077 29.0865 12.1697 29.0865 12.5177 28.7395L26.7397 14.5175C27.0867 14.1695 27.0867 13.6075 26.7397 13.2605ZM23 27.9998C22.173 27.9998 21.5 27.3268 21.5 26.4998C21.5 25.6728 22.173 24.9998 23 24.9998C23.827 24.9998 24.5 25.6728 24.5 26.4998C24.5 27.3268 23.827 27.9998 23 27.9998ZM23 22.9998C21.07 22.9998 19.5 24.5698 19.5 26.4998C19.5 28.4298 21.07 29.9998 23 29.9998C24.93 29.9998 26.5 28.4298 26.5 26.4998C26.5 24.5698 24.93 22.9998 23 22.9998ZM15 14.9998C15.827 14.9998 16.5 15.6728 16.5 16.4998C16.5 17.3268 15.827 17.9998 15 17.9998C14.173 17.9998 13.5 17.3268 13.5 16.4998C13.5 15.6728 14.173 14.9998 15 14.9998ZM15 19.9998C16.93 19.9998 18.5 18.4298 18.5 16.4998C18.5 14.5698 16.93 12.9998 15 12.9998C13.07 12.9998 11.5 14.5698 11.5 16.4998C11.5 18.4298 13.07 19.9998 15 19.9998Z" fill="white"/>
</mask>
<g mask="url(#mask0_35_614)">
<rect x="7" y="9" width="24" height="24" fill="white"/>
</g>
</svg>
