<svg width="80" height="32" viewBox="0 0 80 32" fill="none" xmlns="http://www.w3.org/2000/svg">
<path fill-rule="evenodd" clip-rule="evenodd" d="M72 16.0001C72 16.2281 71.923 16.4551 71.768 16.6401L66.768 22.6401C66.415 23.0641 65.784 23.1221 65.36 22.7681C64.936 22.4151 64.879 21.7851 65.232 21.3601L69.708 15.9891L65.393 10.6271C65.047 10.1971 65.115 9.56709 65.545 9.22109C65.975 8.87509 66.604 8.94309 66.951 9.37309L71.779 15.3731C71.926 15.5561 72 15.7781 72 16.0001" fill="#C6C6C6"/>
<mask id="mask0_201_601" style="mask-type:alpha" maskUnits="userSpaceOnUse" x="65" y="9" width="7" height="14">
<path fill-rule="evenodd" clip-rule="evenodd" d="M72 16.0001C72 16.2281 71.923 16.4551 71.768 16.6401L66.768 22.6401C66.415 23.0641 65.784 23.1221 65.36 22.7681C64.936 22.4151 64.879 21.7851 65.232 21.3601L69.708 15.9891L65.393 10.6271C65.047 10.1971 65.115 9.56709 65.545 9.22109C65.975 8.87509 66.604 8.94309 66.951 9.37309L71.779 15.3731C71.926 15.5561 72 15.7781 72 16.0001" fill="white"/>
</mask>
<g mask="url(#mask0_201_601)">
</g>
<path fill-rule="evenodd" clip-rule="evenodd" d="M8.00002 16.0001C8.00002 16.2281 8.07702 16.4551 8.23202 16.6401L13.232 22.6401C13.585 23.0641 14.216 23.1221 14.64 22.7681C15.064 22.4151 15.121 21.7851 14.768 21.3601L10.292 15.9891L14.607 10.6271C14.953 10.1971 14.885 9.56709 14.455 9.22109C14.025 8.87509 13.396 8.94309 13.049 9.37309L8.22102 15.3731C8.07402 15.5561 8.00002 15.7781 8.00002 16.0001" fill="#C6C6C6"/>
<mask id="mask1_201_601" style="mask-type:alpha" maskUnits="userSpaceOnUse" x="8" y="9" width="7" height="14">
<path fill-rule="evenodd" clip-rule="evenodd" d="M8.00002 16.0001C8.00002 16.2281 8.07702 16.4551 8.23202 16.6401L13.232 22.6401C13.585 23.0641 14.216 23.1221 14.64 22.7681C15.064 22.4151 15.121 21.7851 14.768 21.3601L10.292 15.9891L14.607 10.6271C14.953 10.1971 14.885 9.56709 14.455 9.22109C14.025 8.87509 13.396 8.94309 13.049 9.37309L8.22102 15.3731C8.07402 15.5561 8.00002 15.7781 8.00002 16.0001" fill="white"/>
</mask>
<g mask="url(#mask1_201_601)">
</g>
<path d="M37 2C35.4093 2.00185 33.8842 2.63459 32.7594 3.75941C31.6346 4.88422 31.0019 6.40927 31 8H33C33 6.93913 33.4214 5.92172 34.1716 5.17157C34.9217 4.42143 35.9391 4 37 4C38.0609 4 39.0783 4.42143 39.8284 5.17157C40.5786 5.92172 41 6.93913 41 8H43C42.9981 6.40927 42.3654 4.88422 41.2406 3.75941C40.1158 2.63459 38.5907 2.00185 37 2V2Z" fill="#C6C6C6"/>
<path d="M45 30H40.56C39.5568 29.9997 38.5902 29.6225 37.852 28.943L28.652 20.477C28.4372 20.2806 28.2678 20.0398 28.1556 19.7713C28.0434 19.5027 27.9911 19.2129 28.0023 18.9221C28.0136 18.6313 28.0881 18.3464 28.2207 18.0874C28.3533 17.8283 28.5407 17.6012 28.77 17.422C29.1629 17.1342 29.6445 16.9938 30.1305 17.0254C30.6165 17.057 31.0758 17.2587 31.428 17.595L35 20.857V8C35 7.46957 35.2108 6.96086 35.5858 6.58579C35.9609 6.21071 36.4696 6 37 6C37.5305 6 38.0392 6.21071 38.4143 6.58579C38.7893 6.96086 39 7.46957 39 8V15C39 14.4696 39.2108 13.9609 39.5858 13.5858C39.9609 13.2107 40.4696 13 41 13C41.5305 13 42.0392 13.2107 42.4143 13.5858C42.7893 13.9609 43 14.4696 43 15V16C43 15.4696 43.2108 14.9609 43.5858 14.5858C43.9609 14.2107 44.4696 14 45 14C45.5305 14 46.0392 14.2107 46.4143 14.5858C46.7893 14.9609 47 15.4696 47 16V17C47 16.4696 47.2108 15.9609 47.5858 15.5858C47.9609 15.2107 48.4696 15 49 15C49.5305 15 50.0392 15.2107 50.4143 15.5858C50.7893 15.9609 51 16.4696 51 17V24C51 25.5913 50.3679 27.1174 49.2427 28.2426C48.1175 29.3679 46.5913 30 45 30Z" fill="#C6C6C6"/>
</svg>
