<svg width="15" height="15" viewBox="0 0 15 15" fill="none" xmlns="http://www.w3.org/2000/svg">
<path fill-rule="evenodd" clip-rule="evenodd" d="M10.976 13.1257C10.8772 13.1257 10.7779 13.1026 10.6866 13.0551L7.49973 11.3901L4.31348 13.0551C4.10223 13.1644 3.84723 13.1457 3.65598 13.0057C3.46348 12.8657 3.36786 12.6288 3.40848 12.3944L4.01536 8.87693L1.44036 6.38631C1.26911 6.22068 1.20723 5.97193 1.28036 5.74443C1.35348 5.51818 1.54911 5.35256 1.78536 5.31881L5.34786 4.80131L6.94036 1.59756C7.15161 1.17256 7.84848 1.17256 8.05973 1.59756L9.65223 4.80131L13.2147 5.31881C13.451 5.35256 13.6466 5.51818 13.7197 5.74443C13.7929 5.97193 13.731 6.22068 13.5597 6.38631L10.9847 8.87693L11.5916 12.3944C11.6322 12.6288 11.536 12.8657 11.3441 13.0057C11.2354 13.0857 11.106 13.1257 10.976 13.1257Z" fill="black"/>
<mask id="mask0_35_533" style="mask-type:alpha" maskUnits="userSpaceOnUse" x="1" y="1" width="13" height="13">
<path fill-rule="evenodd" clip-rule="evenodd" d="M10.976 13.1257C10.8772 13.1257 10.7779 13.1026 10.6866 13.0551L7.49973 11.3901L4.31348 13.0551C4.10223 13.1644 3.84723 13.1457 3.65598 13.0057C3.46348 12.8657 3.36786 12.6288 3.40848 12.3944L4.01536 8.87693L1.44036 6.38631C1.26911 6.22068 1.20723 5.97193 1.28036 5.74443C1.35348 5.51818 1.54911 5.35256 1.78536 5.31881L5.34786 4.80131L6.94036 1.59756C7.15161 1.17256 7.84848 1.17256 8.05973 1.59756L9.65223 4.80131L13.2147 5.31881C13.451 5.35256 13.6466 5.51818 13.7197 5.74443C13.7929 5.97193 13.731 6.22068 13.5597 6.38631L10.9847 8.87693L11.5916 12.3944C11.6322 12.6288 11.536 12.8657 11.3441 13.0057C11.2354 13.0857 11.106 13.1257 10.976 13.1257Z" fill="white"/>
</mask>
<g mask="url(#mask0_35_533)">
<rect width="15" height="15" fill="#EBEBEB"/>
</g>
</svg>
